<svg width="85" height="35" viewBox="0 0 1280 504" fill="none" xmlns="http://www.w3.org/2000/svg">
<path d="M197.56 98.72C218.44 98.72 225 113.67 230.48 128.63C232.81 134.97 287.04 283.45 288.65 287.9C289.1 289.14 288.81 291.18 286.89 291.92C284.97 292.66 256.79 303.6 255.24 304.19C253.68 304.78 251.93 303.91 251.35 302.37C250.77 300.83 239.09 268.46 237.78 264.83C233.9 264.83 161.32 264.83 157.44 264.83C156.11 268.46 144.32 300.88 143.78 302.37C143.24 303.85 141.55 304.85 139.9 304.19C138.25 303.54 109.94 292.57 108.27 291.92C106.65 291.31 105.91 289.46 106.48 287.9C108.47 282.33 161.87 136.25 164.6 128.63C169.89 113.9 176.69 98.72 197.56 98.72ZM102.19 364.39C100.5 364.39 99.1499 365.78 99.1499 367.5V402.2C99.1499 403.94 100.51 405.32 102.19 405.32H292.94C294.61 405.32 295.95 403.94 295.95 402.2V367.5C295.95 365.78 294.61 364.39 292.94 364.39H102.19ZM197.4 147.21L170.23 228.76H225L197.74 147.21H197.4V147.21Z" fill="white"/>
<path d="M906.27 266.78C906.27 276.01 901.16 282.09 891.76 282.09C888.03 282.09 884.98 282.1 880.12 280.78V252.84C882.26 252.49 886.7 251.81 891.76 251.98C901.31 252.34 906.27 256.81 906.27 266.78ZM925.59 265.41C925.59 248.3 915.56 236.5 894.49 236.5C889.31 236.5 885.71 236.99 880.12 238.32L880.08 213.86C883.55 213.37 889.5 212.93 896.05 212.93C902.24 212.93 910.09 213.27 916.98 214.11L917.47 199.83C909.64 198.08 898.29 197 889.47 197C880.79 197 867.29 199.17 860.87 200.92L860.86 291.81C870.88 295.48 880.65 297.15 890.7 297.15C913.66 297.15 925.59 284.96 925.59 265.41Z" fill="white"/>
<path d="M707.95 260.45C707.95 273.15 702.89 281.34 694.56 281.34C691.06 281.34 689.21 281.16 685.26 279.87V241.72C689.6 239.65 691.93 239.68 695.43 239.68C703.78 239.68 707.95 246.56 707.95 260.45ZM644.48 260.88C644.48 247 648.66 239.68 656.99 239.68C660.5 239.68 662.84 239.65 667.17 241.72V279.87C663.24 281.16 661.37 281.34 657.86 281.34C648.37 281.34 644.48 273.58 644.48 260.88ZM685.25 318.03V293.21C687.55 294.57 692.14 296.57 699.87 296.57C715.25 296.57 726.58 283.8 726.58 260.45C726.58 235.28 715.33 224.52 696.82 224.52C692.12 224.52 689.06 225 685.24 226.81V197.15H667.16V226.81C663.36 225 660.28 224.52 655.59 224.52C637.09 224.52 625.82 235.73 625.82 260.88C625.82 284.24 636 296.57 652.51 296.57C660.28 296.57 664.86 294.57 667.16 293.21V318.03H685.25Z" fill="white"/>
<path d="M530.84 295.41V241.1C526.04 240.39 525.23 240.23 521.37 240.23C517.53 240.23 516.58 240.39 511.76 241.1V266.18C511.76 286.35 506.27 292.69 491.69 296.79L486.74 286.17C490.41 283.74 491.75 280.59 492.75 277.96C493.76 274.98 493.92 272.19 493.92 262.92V228.83C503.89 225.86 511.37 224.58 521.37 224.58C531.37 224.58 539.04 225.86 549.01 228.83V295.41H530.84Z" fill="white"/>
<path d="M770.94 280.8C766.95 282.18 764.32 282.49 761.17 282.49C754.67 282.49 750.98 279.93 750.98 273.27C750.98 266.34 755.64 263.99 764.64 263.99C766.8 263.99 768.98 264.31 770 264.67V269.64C770.01 275.02 770.27 278.52 770.94 280.8ZM794.01 288.76C789.23 281.47 787.98 277.18 787.98 268.01V249.4C787.98 239.35 786.81 235.65 784.15 231.97C780.47 226.79 774.32 224.57 762.99 224.57C754.99 224.57 747.13 225.43 739.63 227.34L742.32 240.67C747.43 239.96 752.75 239.34 756.6 239.34C768.62 239.34 770.01 241.09 770.01 250.09V253.47C767.34 252.75 764.33 252.23 760.83 252.23C742.67 252.23 733.11 261.09 733.11 275.7C733.11 289.45 743.31 296.93 755.84 296.93C760.49 296.93 765.33 296.07 769.18 294.52C771.48 293.51 772.5 292.93 775.5 290.95C777.32 293.61 780.93 296.3 782.41 296.77L794.01 288.76Z" fill="white"/>
<path d="M969.77 280.8C965.78 282.18 963.15 282.49 959.98 282.49C953.47 282.49 949.81 279.93 949.81 273.27C949.81 266.34 954.47 263.99 963.46 263.99C965.64 263.99 967.81 264.31 968.81 264.67V269.64C968.82 275.02 969.1 278.52 969.77 280.8ZM992.84 288.76C988.03 281.47 986.78 277.18 986.78 268.01V249.4C986.78 239.35 985.64 235.65 982.96 231.97C979.28 226.79 973.14 224.57 961.81 224.57C953.79 224.57 945.96 225.43 938.44 227.34L941.13 240.67C946.22 239.96 951.57 239.34 955.41 239.34C967.41 239.34 968.8 241.09 968.8 250.09V253.47C966.13 252.75 963.13 252.23 959.63 252.23C941.47 252.23 931.92 261.09 931.92 275.7C931.92 289.45 942.14 296.93 954.63 296.93C959.29 296.93 964.14 296.07 967.97 294.52C970.29 293.51 971.29 292.93 974.28 290.95C976.1 293.61 979.74 296.3 981.21 296.77L992.84 288.76Z" fill="white"/>
<path d="M600.05 271.48C600.05 278.3 597.65 282.97 588.93 282.97C585.99 282.97 584.79 282.97 580.97 281.9V261.97C585.7 261.06 586.12 260.9 588.93 260.9C597.26 260.9 600.05 264.95 600.05 271.48ZM562.83 225.68L562.75 291.77C571.36 295.41 580.82 297.03 589.23 297.03C608.51 297.03 618.83 287.07 618.83 270.64C618.83 255.77 609.7 246.57 592.62 246.57C588.28 246.57 585.74 247.14 580.98 248.3V225.67H562.83V225.68Z" fill="white"/>
<path d="M1040.46 295.41V267.18H1019.91V295.41H1001.78V226.31H1019.91V252.43H1040.46V226.31H1058.63V295.41H1040.46Z" fill="white"/>
<path d="M1112.8 295.41C1112.8 295.41 1106.67 280.43 1103.44 273.88C1100.69 268.41 1099.79 267.12 1094.6 267.12L1092.13 267.16V295.4H1073.9V226.3H1092.13V252.41H1095.17C1099.87 252.41 1100.73 250.79 1102.48 247.14C1104.18 243.58 1105.53 240.77 1107.23 237.28C1108.83 234.01 1110.13 231.23 1112 229.35C1114.41 226.9 1116.96 225.51 1121.87 225.22C1124.84 225.04 1127.72 225.06 1130.33 225.4L1129.41 237.98C1129.41 237.98 1126.98 237.37 1125.19 238.99C1123.37 240.59 1122.46 242.03 1119.35 248.79C1116.14 255.69 1113.15 257.97 1109.41 258.67V258.99C1115.02 260.33 1117.52 264.07 1120.27 269.5C1122.69 274.28 1132.6 295.43 1132.6 295.43H1112.8V295.41Z" fill="white"/>
<path d="M460.74 295.41H481.66L450.07 198.82C446.75 197.7 442.59 197 438.21 197C433.42 197 431.71 197.64 427.95 198.82L394.44 295.41H414.48C414.48 295.41 417.17 286.95 420.45 276.44H455.1C458.23 286.94 460.74 295.41 460.74 295.41ZM425.55 260.25C425.55 260.25 431.33 240.89 432.21 237.87C434.55 229.99 438.05 217.59 438.05 217.59H438.62C438.62 217.59 441.84 230.45 443.94 237.76C444.76 240.6 450.28 260.26 450.28 260.26H425.55V260.25Z" fill="white"/>
<path d="M836.01 260.85C836.01 267.28 830.83 272.45 824.44 272.45C818.05 272.45 812.85 267.28 812.85 260.85C812.85 254.48 818.05 249.26 824.44 249.26C830.83 249.26 836.01 254.48 836.01 260.85Z" fill="white"/>
</svg>
