<svg width="85" height="35" viewBox="0 0 166 106" fill="none" xmlns="http://www.w3.org/2000/svg">
<g clip-path="url(#clip0_28_30460)">
<path d="M150.698 0H14.8232C14.2573 0 13.6904 0 13.1255 0.0033C12.648 0.0067 12.1716 0.012 11.6952 0.025C10.6562 0.0531 9.60828 0.1144 8.58228 0.2988C7.53988 0.4864 6.56988 0.7924 5.62358 1.2742C4.69328 1.7473 3.84158 2.3661 3.10349 3.1045C2.36508 3.8429 1.74628 4.6932 1.27328 5.6245C0.791376 6.5708 0.485176 7.5411 0.298876 8.5843C0.113486 9.6106 0.051776 10.6583 0.023776 11.6962C0.010976 12.1726 0.005486 12.649 0.002376 13.1253C-0.000924 13.6914 0.000176 14.2571 0.000176 14.8242V91.142C0.000176 91.7091 -0.000924 92.2738 0.002376 92.841C0.005486 93.3173 0.010976 93.7937 0.023776 94.2701C0.051776 95.3071 0.113486 96.3548 0.298876 97.3808C0.485176 98.4244 0.791376 99.3943 1.27328 100.341C1.74628 101.272 2.36508 102.123 3.10349 102.861C3.84158 103.6 4.69328 104.219 5.62358 104.691C6.56988 105.174 7.53988 105.48 8.58228 105.668C9.60828 105.851 10.6562 105.913 11.6952 105.941C12.1716 105.952 12.648 105.959 13.1255 105.961C13.6904 105.965 14.2573 105.965 14.8232 105.965H150.698C151.263 105.965 151.83 105.965 152.395 105.961C152.871 105.959 153.347 105.952 153.826 105.941C154.863 105.913 155.911 105.851 156.939 105.668C157.98 105.48 158.95 105.174 159.897 104.691C160.828 104.219 161.677 103.6 162.417 102.861C163.154 102.123 163.773 101.272 164.247 100.341C164.73 99.3943 165.036 98.4244 165.221 97.3808C165.407 96.3548 165.467 95.3071 165.495 94.2701C165.508 93.7937 165.514 93.3173 165.517 92.841C165.521 92.2738 165.521 91.7091 165.521 91.142V14.8242C165.521 14.2571 165.521 13.6914 165.517 13.1253C165.514 12.649 165.508 12.1726 165.495 11.6962C165.467 10.6583 165.407 9.6106 165.221 8.5843C165.036 7.5411 164.73 6.5708 164.247 5.6245C163.773 4.6932 163.154 3.8429 162.417 3.1045C161.677 2.3661 160.828 1.7473 159.897 1.2742C158.95 0.7924 157.98 0.4864 156.939 0.2988C155.911 0.1144 154.863 0.0531 153.826 0.025C153.347 0.012 152.871 0.0067 152.395 0.0033C151.83 0 151.263 0 150.698 0Z" fill="white"/>
<path d="M150.698 3.53223L152.37 3.53543C152.823 3.53863 153.275 3.54353 153.731 3.55593C154.523 3.57733 155.449 3.62023 156.313 3.77503C157.063 3.91023 157.693 4.11583 158.297 4.42343C158.894 4.72653 159.44 5.12373 159.917 5.60023C160.396 6.07993 160.794 6.62733 161.101 7.23043C161.407 7.82993 161.611 8.45653 161.746 9.21273C161.9 10.0669 161.943 10.9959 161.965 11.7928C161.977 12.2426 161.983 12.6924 161.985 13.1529C161.989 13.7098 161.989 14.2664 161.989 14.8244V91.1422C161.989 91.7002 161.989 92.2558 161.985 92.8246C161.983 93.2743 161.977 93.7241 161.965 94.1747C161.943 94.9704 161.9 95.8989 161.744 96.7632C161.611 97.509 161.407 98.1357 161.1 98.7382C160.793 99.3398 160.396 99.8866 159.919 100.363C159.44 100.843 158.895 101.239 158.291 101.545C157.692 101.851 157.063 102.057 156.32 102.191C155.439 102.348 154.473 102.391 153.746 102.41C153.289 102.421 152.834 102.427 152.367 102.429C151.812 102.433 151.254 102.433 150.698 102.433H14.8233C14.8159 102.433 14.8087 102.433 14.8012 102.433C14.2518 102.433 13.7013 102.433 13.1419 102.429C12.6858 102.427 12.2307 102.421 11.7907 102.411C11.0471 102.391 10.0812 102.348 9.20733 102.192C8.45764 102.057 7.82913 101.851 7.22153 101.541C6.62364 101.238 6.07933 100.842 5.59923 100.362C5.12283 99.8859 4.72693 99.3408 4.42083 98.7383C4.11443 98.1364 3.90943 97.5078 3.77464 96.7531C3.61883 95.8905 3.57603 94.9657 3.55464 94.1754C3.54243 93.7229 3.53733 93.2705 3.53443 92.8207L3.53223 91.4928L3.53233 91.1422V14.8244L3.53223 14.4738L3.53433 13.1487C3.53733 12.6962 3.54243 12.2438 3.55464 11.7917C3.57603 11.0006 3.61883 10.0754 3.77593 9.20563C3.90953 8.45773 4.11443 7.82913 4.42243 7.22423C4.72613 6.62633 5.12273 6.08053 5.60164 5.60173C6.07864 5.12453 6.62473 4.72783 7.22643 4.42183C7.82753 4.11573 8.45723 3.91023 9.20693 3.77533C10.0707 3.62013 10.9978 3.57733 11.7918 3.55583C12.2444 3.54353 12.697 3.53863 13.1462 3.53553L14.8233 3.53223H150.698" fill="black"/>
<path d="M45.1863 35.6407C46.6036 33.8681 47.5653 31.4879 47.3116 29.0557C45.237 29.1588 42.7053 30.4244 41.2396 32.1984C39.9235 33.7176 38.7587 36.1974 39.0623 38.5277C41.3912 38.7297 43.718 37.3636 45.1863 35.6407Z" fill="white"/>
<path d="M47.2852 38.9827C43.9031 38.7813 41.0275 40.9022 39.4123 40.9022C37.7963 40.9022 35.323 39.0843 32.6479 39.1333C29.1662 39.1844 25.9355 41.153 24.1686 44.284C20.5345 50.5476 23.2096 59.8387 26.7436 64.9401C28.4598 67.4639 30.5281 70.2428 33.2533 70.143C35.8283 70.0419 36.8376 68.4757 39.9675 68.4757C43.0952 68.4757 44.0043 70.143 46.73 70.0925C49.5567 70.0419 51.3238 67.5674 53.04 65.0411C55.0088 62.1641 55.8147 59.3862 55.8654 59.2337C55.8147 59.1832 50.4148 57.1116 50.3648 50.9001C50.3138 45.6991 54.6043 43.2252 54.8062 43.0718C52.3833 39.4883 48.5976 39.0843 47.2852 38.9827Z" fill="white"/>
<path d="M76.7339 31.9439C84.0849 31.9439 89.2036 37.0109 89.2036 44.3882C89.2036 51.7919 83.9795 56.8853 76.5496 56.8853H68.4106V69.8284H62.5303V31.9438H76.7339V31.9439ZM68.4106 51.9493H75.158C80.2777 51.9493 83.1916 49.193 83.1916 44.4146C83.1916 39.6366 80.2777 36.9061 75.1843 36.9061H68.4106V51.9493V51.9493Z" fill="white"/>
<path d="M90.7402 61.9788C90.7402 57.1477 94.4421 54.1812 101.006 53.8135L108.567 53.3674V51.241C108.567 48.1691 106.492 46.3314 103.028 46.3314C99.7451 46.3314 97.6972 47.9063 97.1989 50.3745H91.8432C92.1582 45.3859 96.4109 41.7104 103.237 41.7104C109.932 41.7104 114.211 45.2548 114.211 50.7943V69.8285H108.776V65.2866H108.646C107.044 68.3584 103.552 70.301 99.9294 70.301C94.521 70.301 90.7402 66.9405 90.7402 61.9788ZM108.567 59.4847V57.3057L101.767 57.7255C98.3798 57.962 96.4636 59.4584 96.4636 61.8213C96.4636 64.2363 98.4588 65.8117 101.504 65.8117C105.468 65.8117 108.567 63.0812 108.567 59.4847Z" fill="white"/>
<path d="M119.342 79.9888V75.3942C119.761 75.499 120.706 75.499 121.179 75.499C123.804 75.499 125.222 74.3965 126.088 71.5612C126.088 71.5085 126.587 69.8809 126.587 69.8546L116.611 42.209H122.754L129.738 64.6827H129.843L136.827 42.209H142.813L132.468 71.272C130.106 77.9672 127.375 80.1199 121.652 80.1199C121.179 80.1199 119.761 80.0672 119.342 79.9888Z" fill="white"/>
</g>
<defs>
<clipPath id="clip0_28_30460">
<rect width="165.521" height="105.965" fill="white"/>
</clipPath>
</defs>
</svg>
