<svg version="1.1" id="Слой_1" xmlns="http://www.w3.org/2000/svg" xmlns:xlink="http://www.w3.org/1999/xlink" x="0px" y="0px" width="80px" height="35px" viewBox="0 0 88.087 98.037" style="enable-background:new 0 0 88.087 98.037;" xml:space="preserve"><style type="text/css">.st0 {fill: black;}.st1 {fill-rule: evenodd;clip-rule: evenodd;fill: black;}</style><path d="M26.256,84.701l-0.189,3.197c-0.063,1.09-0.133,2.032-0.207,2.839c-0.116,1.33-0.25,4.521-1.974,4.521          c-0.021,0-0.044,0-0.068,0c-0.155-0.002-0.352,0.13-0.352,0.343v1.949c0,0.041,0,0.068,0,0.104c0,0.225,0.15,0.379,0.355,0.379          c0.03,0,0.124,0,0.154,0c1.298-0.005,2.437-0.142,3.419-1.626c0.308-0.465,0.578-0.988,0.771-1.581          c0.195-0.592,0.35-1.258,0.463-1.99c0.111-0.732,0.202-1.539,0.276-2.422c0.07-0.88,0.141-1.836,0.21-2.874l0.084-1.472H33.3v11.61          c0,0.195,0.17,0.374,0.379,0.355h2.437c0.254,0,0.381-0.174,0.381-0.378V84.331c0.002-0.552-0.46-1.039-1.111-1.039h-8.068          c-0.62,0-0.987,0.542-1.014,0.992C26.295,84.412,26.264,84.55,26.256,84.701 M1.039,98.034h5.523          c2.729,0.096,4.959-1.798,5.048-4.626c0.003-0.242,0.017-0.531-0.05-0.848c-0.483-2.314-2.313-3.905-4.642-3.905H3.197v-2.628h6.351          c0.24,0.006,0.385-0.166,0.379-0.399v-1.872c0.005-0.256-0.09-0.469-0.379-0.463H1.116C0.254,83.293,0,83.925,0,84.331v12.666          C0,97.568,0.45,98.034,1.039,98.034z M68.177,97.592v-4.929h3.494c2.417,0,4.682-1.977,4.643-4.765c0-0.67-0.168-1.299-0.414-1.851          c-0.58-1.298-1.638-2.166-2.888-2.547c-0.512-0.156-1.069-0.203-1.618-0.207h-5.335c-0.568,0-1.043,0.392-1.068,1.011          c-0.003,0.085-0.012,0.176-0.011,0.272v13.103c0,0.203,0.152,0.355,0.362,0.356h2.481c0.129,0,0.252-0.077,0.311-0.189          C68.168,97.775,68.177,97.694,68.177,97.592z M72.972,87.979c-0.001,1.028-0.819,1.931-1.931,1.93l-2.864-0.003v-3.858h2.732          C72.148,86.01,72.974,86.95,72.972,87.979z M59.873,94.964l0.82,2.734c0.07,0.251,0.204,0.336,0.362,0.336h2.661          c0.249-0.001,0.41-0.209,0.35-0.458l-4.361-13.129c-0.205-0.64-0.513-1.154-1.257-1.154l-1.888,0.005          c-0.375-0.024-0.704,0.104-0.959,0.441c-0.13,0.17-0.242,0.403-0.333,0.708L50.91,97.559c-0.097,0.292,0.148,0.475,0.343,0.475          h2.558c0.081,0,0.256,0.012,0.364-0.217c0.023-0.051,0.048-0.123,0.063-0.183l0.82-2.67H59.873z M55.815,92.357l0.799-2.664l0.799-3          h0.126l0.778,3l0.799,2.664H55.815z M46.964,90.191v-0.105c0.452-0.274,0.831-0.631,1.129-1.069          c0.301-0.438,0.521-0.957,0.659-1.553l0.967-3.754c0.036-0.167-0.077-0.417-0.352-0.417h-2.298          c-0.077-0.003-0.157,0.011-0.242,0.046c-0.083,0.031-0.143,0.116-0.178,0.249l-0.946,3.54c-0.112,0.43-0.263,0.774-0.448,1.026          c-0.187,0.257-0.394,0.446-0.62,0.568c-0.226,0.123-0.456,0.204-0.688,0.242c-0.234,0.035-0.456,0.053-0.663,0.049h-1.661v-5.369          c0-0.227-0.19-0.351-0.351-0.351h-2.467c-0.209,0-0.378,0.151-0.378,0.337v14.068c0,0.195,0.184,0.336,0.378,0.336h2.439          c0.201,0,0.378-0.136,0.378-0.336v-6.246h1.703c0.487-0.007,0.901,0.039,1.238,0.137c0.336,0.095,0.616,0.27,0.841,0.526          c0.221,0.256,0.406,0.624,0.55,1.104l1.296,4.563c0.07,0.187,0.199,0.252,0.334,0.252h2.441c0.309,0.015,0.399-0.282,0.366-0.42          l-1.304-4.879c-0.08-0.315-0.172-0.603-0.267-0.858c-0.098-0.26-0.221-0.491-0.371-0.698c-0.148-0.207-0.344-0.392-0.582-0.557          C47.63,90.461,47.328,90.317,46.964,90.191z M22.768,97.55v-1.936c0-0.144-0.108-0.356-0.356-0.356h-5.713          c-0.348,0-1.038-0.242-1.038-1.128v-2.804h6.072c0.254,0,0.362-0.217,0.362-0.345v-1.97c0-0.206-0.144-0.357-0.399-0.357h-6.035          v-1.572c0-0.668,0.555-1.035,1.038-1.035h5.696c0.266,0,0.373-0.205,0.373-0.356V83.65c0-0.202-0.151-0.356-0.399-0.357          l-5.931-0.028c-2.228-0.01-3.974,1.856-3.974,3.919v6.981c0,2.141,1.809,3.869,3.891,3.869h6.051c0.214,0,0.357-0.157,0.362-0.356          C22.769,97.642,22.768,97.594,22.768,97.55z M83.86,86.048v11.65c0,0.2-0.178,0.336-0.379,0.336h-2.438          c-0.194,0-0.38-0.141-0.38-0.336v-11.65h-3.826c-0.195,0-0.337-0.185-0.337-0.378v-1.998c0-0.201,0.137-0.379,0.337-0.379          c3.638,0,7.275,0,10.913,0c0.2,0,0.337,0.178,0.337,0.379v1.998c0,0.193-0.142,0.378-0.337,0.378H83.86z M8.286,93.24          c0.036,1.16-0.88,1.998-2.04,1.998H3.197v-3.912h3.07C7.351,91.326,8.25,92.079,8.286,93.24z" class="st0"></path><path d="M55.744,62.007l-4.874,8.709v-3.835L55.744,62.007z M65.408,27.786L54.314,38.879          c-0.321,0.321-0.321,0.847,0,1.168l5.441,5.44l7.629,0.805H51.695c-0.453,0-0.825,0.372-0.825,0.826v7.368l4.941,6.285          L44.719,49.678c-0.321-0.321-0.846-0.321-1.167,0L38.26,54.97l-0.985,7.862V47.144c0-0.454-0.372-0.826-0.825-0.826h-7.925          l-5.844,4.77l11.093-11.093c0.321-0.321,0.321-0.847,0-1.168l-5.554-5.554l-7.526-0.716h15.689c0.454,0,0.825-0.371,0.825-0.826          v-7.492l-4.892-6.144l11.095,11.094c0.32,0.321,0.847,0.321,1.168,0l5.452-5.454l0.807-7.693V31.73c0,0.454,0.371,0.826,0.825,0.826          h7.811L65.408,27.786z M68.21,53.942v-6.824l2.791,9.615L68.21,53.942z M83.262,44.472L71.346,32.556l-4.77-4.77l8.686,4.77          c0.454,0,0.825-0.372,0.825-0.826V16.042c0-0.454-0.371-0.825-0.825-0.825H58.551l2.714-2.715l-2.714,2.715h-6.888l9.602-2.715          c0.321-0.321,0.321-0.846,0-1.167L50.171,0.241c-0.321-0.321-0.847-0.321-1.167,0L37.208,12.037l-5.042,5.103l-0.004,0.005h-0.001          l0.008-0.015l0.026-0.048l5.013-8.949c0-0.454-0.371-0.825-0.825-0.825H20.693c-0.453,0-0.824,0.371-0.824,0.825v16.788v0.001v6.809          l-2.781-9.59c-0.322-0.321-0.848-0.321-1.168,0L4.827,33.234c-0.322,0.321-0.322,0.847,0,1.168l16.686,16.686l-8.662-4.77          c-0.454,0-0.825,0.372-0.825,0.826v15.688c0,0.454,0.371,0.825,0.825,0.825h16.721h6.878l-9.584,2.707          c-0.321,0.321-0.321,0.847,0,1.168l11.094,11.093c0.32,0.321,0.846,0.321,1.167,0L50.87,66.881v3.835          c0,0.454,0.372,0.826,0.825,0.826h15.689c0.454,0,0.826-0.372,0.826-0.826V53.942l2.791,2.791c0.321,0.321,0.846,0.321,1.168,0          L83.262,45.64C83.583,45.318,83.583,44.793,83.262,44.472z" class="st1"></path></svg>