<svg width="85" height="35" viewBox="0 0 435 100" fill="none" xmlns="http://www.w3.org/2000/svg">
<g clip-path="url(#clip0_28_30472)">
<path d="M81.46 0.0100098H10.22C4.57565 0.0100098 0 4.58566 0 10.23V81.47C0 87.1144 4.57565 91.69 10.22 91.69H81.46C87.1043 91.69 91.68 87.1144 91.68 81.47V10.23C91.68 4.58566 87.1043 0.0100098 81.46 0.0100098Z" fill="black"/>
<path fill-rule="evenodd" clip-rule="evenodd" d="M62.0801 68.1701H51.1501C50.9997 68.1675 50.8562 68.1066 50.7499 68.0003C50.6435 67.894 50.5827 67.7505 50.5801 67.6001V64.8901L42.3501 73.1201C42.2418 73.2258 42.0964 73.2849 41.9451 73.2849C41.7938 73.2849 41.6484 73.2258 41.5401 73.1201L33.8101 65.4201C33.7044 65.3118 33.6453 65.1664 33.6453 65.0151C33.6453 64.8638 33.7044 64.7184 33.8101 64.6101L35.7301 62.6901H24.0901C23.9397 62.6875 23.7962 62.6267 23.6899 62.5203C23.5835 62.414 23.5227 62.2705 23.5201 62.1201V51.1601C23.5201 51.0089 23.5801 50.8639 23.687 50.757C23.7939 50.6502 23.9389 50.5901 24.0901 50.5901H26.8001L18.5701 42.3601C18.4644 42.2518 18.4053 42.1064 18.4053 41.9551C18.4053 41.8038 18.4644 41.6584 18.5701 41.5501L26.3001 33.8201C26.4084 33.7144 26.5538 33.6553 26.7051 33.6553C26.8564 33.6553 27.0018 33.7144 27.1101 33.8201L29.0201 35.7301V24.1001C29.0201 24.0244 29.0352 23.9495 29.0644 23.8796C29.0937 23.8098 29.1366 23.7465 29.1906 23.6935C29.2446 23.6404 29.3086 23.5986 29.3789 23.5706C29.4492 23.5425 29.5244 23.5288 29.6001 23.5301H40.5301C40.6813 23.5301 40.8262 23.5902 40.9331 23.6971C41.04 23.8039 41.1001 23.9489 41.1001 24.1001V26.8001L49.3301 18.5801C49.4384 18.4744 49.5838 18.4153 49.7351 18.4153C49.8864 18.4153 50.0318 18.4744 50.1401 18.5801L57.8701 26.3101C57.9758 26.4184 58.0349 26.5638 58.0349 26.7151C58.0349 26.8664 57.9758 27.0118 57.8701 27.1201L55.9501 29.0301H67.5901C67.7422 29.0327 67.8871 29.095 67.9938 29.2035C68.1004 29.312 68.1601 29.458 68.1601 29.6101V40.5401C68.1575 40.6905 68.0966 40.834 67.9903 40.9403C67.884 41.0467 67.7405 41.1075 67.5901 41.1101H64.8801L73.1101 49.3401C73.2158 49.4484 73.2749 49.5938 73.2749 49.7451C73.2749 49.8964 73.2158 50.0418 73.1101 50.1501L65.3801 57.8701C65.3278 57.9249 65.265 57.9685 65.1953 57.9982C65.1257 58.028 65.0508 58.0434 64.9751 58.0434C64.8994 58.0434 64.8244 58.028 64.7548 57.9982C64.6852 57.9685 64.6224 57.9249 64.5701 57.8701L62.6601 55.9601V67.6001C62.6575 67.7522 62.5952 67.8972 62.4867 68.0038C62.3782 68.1104 62.2322 68.1701 62.0801 68.1701V68.1701ZM60.6701 37.7101L56.4001 41.1101H51.1501C50.9997 41.1075 50.8562 41.0467 50.7499 40.9403C50.6435 40.834 50.5827 40.6905 50.5801 40.5401V29.6101L49.9601 35.0301L46.2501 38.7401C46.1401 38.8464 45.9931 38.9058 45.8401 38.9058C45.6871 38.9058 45.5401 38.8464 45.4301 38.7401L41.1001 34.4201L37.7101 31.0201L41.1001 35.2901V40.5501C41.0975 40.7005 41.0366 40.844 40.9303 40.9503C40.824 41.0567 40.6805 41.1175 40.5301 41.1201H29.6001L35.0201 41.7401L38.7301 45.4501C38.7849 45.5024 38.8284 45.5652 38.8582 45.6349C38.888 45.7045 38.9033 45.7794 38.9033 45.8551C38.9033 45.9308 38.888 46.0057 38.8582 46.0753C38.8284 46.145 38.7849 46.2078 38.7301 46.2601L31.0101 53.9901L35.2801 50.6001H40.5301C40.6813 50.6001 40.8262 50.6602 40.9331 50.7671C41.04 50.874 41.1001 51.0189 41.1001 51.1701V62.1001L41.7201 56.6801L45.4301 52.9601C45.5401 52.8538 45.6871 52.7944 45.8401 52.7944C45.9931 52.7944 46.1401 52.8538 46.2501 52.9601L53.9701 60.6901L50.5801 56.4201V51.1701C50.5801 51.0189 50.6401 50.874 50.747 50.7671C50.8539 50.6602 50.9989 50.6001 51.1501 50.6001H62.0801L56.6601 49.9801L52.9501 46.2601C52.8953 46.2078 52.8518 46.145 52.822 46.0753C52.7922 46.0057 52.7768 45.9308 52.7768 45.8551C52.7768 45.7794 52.7922 45.7045 52.822 45.6349C52.8518 45.5652 52.8953 45.5024 52.9501 45.4501L57.2801 41.1201L60.6701 37.7101Z" fill="white"/>
<path fill-rule="evenodd" clip-rule="evenodd" d="M140.63 36.72C140.76 40.99 137.39 44.07 133.12 44.07H121.9V29.67H133.2C134.154 29.6339 135.105 29.7888 135.998 30.1255C136.891 30.4623 137.707 30.9741 138.399 31.6309C139.091 32.2877 139.645 33.0763 140.029 33.9502C140.412 34.8242 140.616 35.7659 140.63 36.72V36.72ZM418.82 10.25V53.13C418.818 53.3064 418.78 53.4805 418.708 53.6418C418.637 53.8031 418.534 53.9484 418.405 54.0689C418.276 54.1893 418.124 54.2825 417.958 54.3429C417.793 54.4032 417.616 54.4294 417.44 54.42H408.44C408.091 54.4366 407.75 54.3163 407.488 54.0846C407.227 53.853 407.066 53.5284 407.04 53.18V10.25H392.96C392.614 10.2219 392.292 10.0601 392.062 9.79883C391.832 9.53758 391.713 9.19734 391.73 8.85V1.5C391.718 1.32709 391.74 1.15347 391.796 0.98922C391.851 0.824965 391.938 0.673341 392.053 0.543121C392.167 0.412901 392.306 0.306678 392.462 0.230614C392.618 0.154549 392.787 0.110154 392.96 0.0999985H433.14C433.314 0.110191 433.483 0.154531 433.64 0.230469C433.796 0.306407 433.936 0.412449 434.051 0.542519C434.166 0.672588 434.254 0.824119 434.311 0.988426C434.368 1.15273 434.391 1.32658 434.38 1.5V8.85C434.397 9.19895 434.276 9.54058 434.045 9.80209C433.813 10.0636 433.489 10.2243 433.14 10.25H418.82ZM193.94 52.59V45.42C193.94 45.0726 193.802 44.7394 193.556 44.4937C193.311 44.248 192.978 44.11 192.63 44.11H171.63C171.101 44.106 170.579 43.9934 170.095 43.7791C169.612 43.5648 169.177 43.2534 168.819 42.8643C168.461 42.4751 168.187 42.0166 168.013 41.517C167.84 41.0174 167.77 40.4874 167.81 39.96V29.68H190.16C190.494 29.6726 190.812 29.5381 191.05 29.3039C191.288 29.0697 191.428 28.7536 191.44 28.42V21.17C191.443 20.9828 191.406 20.7972 191.331 20.6256C191.256 20.4541 191.145 20.3005 191.006 20.1755C190.866 20.0504 190.702 19.9566 190.523 19.9005C190.345 19.8443 190.156 19.8271 189.97 19.85H167.78V14.07C167.778 13.5681 167.875 13.0706 168.066 12.6065C168.257 12.1424 168.538 11.7209 168.894 11.3664C169.249 11.012 169.671 10.7316 170.136 10.5417C170.601 10.3518 171.098 10.256 171.6 10.26H192.6C192.778 10.2696 192.957 10.2425 193.124 10.1802C193.291 10.1179 193.444 10.0219 193.572 9.89806C193.701 9.77422 193.803 9.62525 193.871 9.46043C193.939 9.2956 193.973 9.11844 193.97 8.93999V1.42C193.968 1.23422 193.928 1.05086 193.851 0.881577C193.775 0.71229 193.664 0.560775 193.526 0.436646C193.387 0.312516 193.225 0.218485 193.048 0.16053C192.872 0.102576 192.685 0.0819646 192.5 0.0999985L170.67 0C166.824 0.00206321 163.133 1.51445 160.391 4.21149C157.649 6.90853 156.076 10.5745 156.01 14.42V40.12C156.047 43.9047 157.568 47.5238 160.246 50.1982C162.924 52.8727 166.545 54.3887 170.33 54.42H192.61C192.785 54.4254 192.958 54.3954 193.121 54.3318C193.283 54.2681 193.431 54.1722 193.556 54.0497C193.68 53.9272 193.778 53.7808 193.844 53.6193C193.91 53.4577 193.943 53.2845 193.94 53.11V52.64V52.59ZM283 25.5V25.11C284.657 24.1155 286.077 22.7708 287.16 21.17C288.323 19.4379 289.144 17.4999 289.58 15.46L293.14 1.64C293.178 1.45097 293.172 1.25597 293.124 1.06932C293.076 0.882672 292.987 0.709114 292.864 0.561401C292.74 0.413689 292.585 0.295574 292.409 0.215729C292.234 0.135883 292.043 0.0963385 291.85 0.0999985H283.44C283.135 0.0902439 282.831 0.148299 282.55 0.269997C282.375 0.359269 282.223 0.489433 282.108 0.649536C281.993 0.809639 281.918 0.994994 281.89 1.18999L278.41 14.19C278.097 15.5406 277.538 16.822 276.76 17.97C276.163 18.8291 275.38 19.5433 274.47 20.06C273.684 20.4987 272.828 20.7997 271.94 20.95C271.136 21.0758 270.324 21.136 269.51 21.13H263.34V1.42C263.34 1.25106 263.307 1.08379 263.242 0.927841C263.177 0.771889 263.082 0.630336 262.962 0.511345C262.842 0.392354 262.7 0.298285 262.543 0.23455C262.387 0.170816 262.219 0.13868 262.05 0.139999H252.97C252.622 0.118063 252.278 0.235202 252.016 0.465752C251.754 0.696301 251.593 1.02146 251.57 1.37V53.16C251.596 53.5084 251.757 53.833 252.018 54.0646C252.28 54.2962 252.621 54.4166 252.97 54.4H261.97C262.143 54.4122 262.317 54.3895 262.482 54.3334C262.646 54.2773 262.797 54.1889 262.927 54.0733C263.056 53.9577 263.162 53.8174 263.236 53.6605C263.31 53.5036 263.353 53.3335 263.36 53.16V30.16H269.63C271.166 30.1018 272.703 30.2703 274.19 30.66C275.389 30.9888 276.463 31.6636 277.28 32.6C278.22 33.8008 278.901 35.1832 279.28 36.66L284.04 53.46C284.117 53.7293 284.279 53.9661 284.503 54.134C284.727 54.302 285 54.3919 285.28 54.39H294.28C294.478 54.4014 294.676 54.3673 294.859 54.2903C295.042 54.2134 295.205 54.0956 295.335 53.946C295.465 53.7963 295.56 53.6189 295.611 53.4272C295.662 53.2355 295.669 53.0346 295.63 52.84L290.83 34.84C290.551 33.7702 290.217 32.7155 289.83 31.68C289.493 30.7648 289.032 29.9001 288.46 29.11C287.871 28.3077 287.147 27.614 286.32 27.06C285.283 26.3926 284.163 25.8615 282.99 25.48L283 25.5ZM315.58 33.5L318.52 23.69L321.47 12.69H321.93L324.8 23.69L327.74 33.5H315.58ZM330.52 43.1L333.52 53.16C333.78 54.08 334.27 54.4 334.86 54.4H344.65C344.858 54.4058 345.064 54.3621 345.251 54.2726C345.439 54.1832 345.602 54.0504 345.728 53.8853C345.854 53.7203 345.939 53.5276 345.976 53.3233C346.013 53.1189 346.001 52.9087 345.94 52.71L329.88 4.38C329.12 2.03 328 0.129997 325.26 0.129997H318.31C317.631 0.0650026 316.947 0.180607 316.327 0.465096C315.707 0.749584 315.174 1.19285 314.78 1.75C314.22 2.54099 313.804 3.4245 313.55 4.36L297.55 52.63C297.479 52.8298 297.457 53.0439 297.487 53.2539C297.517 53.4639 297.597 53.6636 297.721 53.8357C297.845 54.0078 298.009 54.1473 298.198 54.2421C298.388 54.3369 298.598 54.3842 298.81 54.38H308.22C308.501 54.4148 308.785 54.355 309.028 54.2101C309.27 54.0652 309.458 53.8435 309.56 53.58C309.657 53.3629 309.737 53.1389 309.8 52.91L312.8 43.08L330.52 43.1ZM378.74 17.38C378.741 18.3141 378.559 19.2392 378.202 20.1024C377.845 20.9657 377.321 21.75 376.661 22.4105C376 23.0709 375.216 23.5946 374.353 23.9515C373.489 24.3083 372.564 24.4913 371.63 24.49H361.08V10.29H371.15C372.122 10.2272 373.096 10.3641 374.013 10.6923C374.93 11.0204 375.77 11.533 376.481 12.1982C377.192 12.8634 377.759 13.6673 378.148 14.5602C378.537 15.4531 378.738 16.4162 378.74 17.39V17.38ZM361.08 52.77V34.6H373.95C376.228 34.5845 378.48 34.117 380.576 33.2244C382.672 32.3319 384.57 31.0322 386.16 29.4006C387.749 27.769 389 25.838 389.837 23.7196C390.675 21.6012 391.084 19.3376 391.04 17.06C391.016 14.7075 390.495 12.3866 389.51 10.25C388.526 8.00811 387.065 6.00759 385.23 4.38766C383.394 2.76774 381.227 1.56733 378.88 0.869995C376.943 0.335203 374.94 0.0759928 372.93 0.0999985H353.29C352.787 0.0813061 352.284 0.163203 351.813 0.340904C351.341 0.518606 350.91 0.788545 350.544 1.13493C350.178 1.48131 349.885 1.89718 349.682 2.35822C349.478 2.81925 349.369 3.31621 349.36 3.82C349.36 4.14 349.31 4.47 349.36 4.82V53.05C349.357 53.2245 349.39 53.3977 349.456 53.5593C349.522 53.7208 349.62 53.8672 349.745 53.9897C349.869 54.1121 350.017 54.2081 350.18 54.2718C350.342 54.3354 350.516 54.3654 350.69 54.36H359.83C360.065 54.3555 360.295 54.2882 360.495 54.1651C360.696 54.042 360.86 53.8677 360.97 53.66C361.094 53.3664 361.145 53.0475 361.12 52.73L361.08 52.77ZM113.96 54.42H134.28C144.28 54.77 152.53 47.8 152.86 37.42C152.918 36.3765 152.857 35.3299 152.68 34.3C150.9 25.78 144.17 19.92 135.59 19.92H121.9V10.25H145.28C145.473 10.2615 145.665 10.2307 145.845 10.1598C146.024 10.0888 146.186 9.9794 146.318 9.83927C146.451 9.69915 146.551 9.53169 146.612 9.34868C146.672 9.16567 146.692 8.97156 146.67 8.78V1.89C146.67 0.889999 146.34 0.16 145.28 0.18H114.28C113.752 0.132081 113.22 0.196061 112.718 0.367767C112.217 0.539473 111.757 0.815044 111.369 1.17648C110.981 1.53792 110.674 1.97711 110.468 2.46535C110.261 2.9536 110.16 3.47993 110.17 4.00999V50.63C110.168 51.1332 110.265 51.632 110.457 52.0973C110.648 52.5626 110.93 52.9853 111.287 53.3406C111.643 53.696 112.066 53.9771 112.532 54.1675C112.998 54.358 113.497 54.454 114 54.45L113.96 54.42ZM206.78 5.34L206.08 17.11C205.85 21.11 205.59 24.59 205.32 27.56C204.89 32.45 204.4 44.2 198.05 44.2H197.8C197.462 44.2049 197.139 44.3393 196.897 44.5757C196.655 44.812 196.513 45.1321 196.5 45.47V53.02C196.488 53.2003 196.513 53.3812 196.574 53.5514C196.635 53.7215 196.73 53.8773 196.854 54.0087C196.978 54.1402 197.128 54.2447 197.294 54.3154C197.46 54.3862 197.639 54.4218 197.82 54.42H198.38C203.16 54.42 207.38 53.89 210.97 48.42C212.175 46.6172 213.131 44.6594 213.81 42.6C214.58 40.2084 215.149 37.7565 215.51 35.27C215.924 32.6033 216.257 29.6333 216.51 26.36C216.77 23.12 217.03 19.6 217.28 15.78L217.59 10.36H232.69V53.1C232.691 53.2785 232.729 53.455 232.8 53.6187C232.871 53.7825 232.975 53.93 233.105 54.0525C233.235 54.1749 233.388 54.2698 233.556 54.3312C233.724 54.3927 233.902 54.4195 234.08 54.41H243.08C243.267 54.4217 243.454 54.3935 243.629 54.3273C243.805 54.2611 243.964 54.1584 244.096 54.026C244.229 53.8936 244.331 53.7345 244.397 53.5593C244.464 53.3841 244.492 53.1969 244.48 53.01V4.00999C244.467 3.48863 244.351 2.97503 244.138 2.49913C243.924 2.02323 243.618 1.59456 243.238 1.23808C242.857 0.881607 242.409 0.604463 241.92 0.422806C241.431 0.241148 240.911 0.15861 240.39 0.18H210.69C209.723 0.211324 208.802 0.604929 208.112 1.28281C207.421 1.9607 207.01 2.87338 206.96 3.84C206.92 4.23 206.81 4.73 206.78 5.29V5.34Z" fill="black"/>
<path fill-rule="evenodd" clip-rule="evenodd" d="M127.28 72.8099L123.77 78.7299L117.1 89.5399C116.86 89.9099 116.65 90.1999 116.47 90.4299C116.301 90.6355 116.103 90.8142 115.88 90.9599C115.657 91.095 115.408 91.1835 115.15 91.2199C114.819 91.2631 114.484 91.2831 114.15 91.2799H112.57C112.195 91.3292 111.814 91.2887 111.457 91.1618C111.101 91.0348 110.78 90.8252 110.52 90.5499C110.149 89.9512 109.971 89.2531 110.01 88.5499V64.4199C110.01 63.9199 110.28 63.6699 110.84 63.6699H115.06C115.43 63.6699 115.66 63.7199 115.75 63.8299C115.862 64.0051 115.911 64.2131 115.89 64.4199V82.1199H116.12L119.48 76.5999L126.3 65.3999C126.54 65.0299 126.75 64.7299 126.93 64.4899C127.093 64.2735 127.293 64.0874 127.52 63.9399C127.737 63.8063 127.978 63.7179 128.23 63.6799C128.562 63.6357 128.896 63.6156 129.23 63.6199H130.85C131.207 63.5824 131.568 63.617 131.912 63.7218C132.256 63.8266 132.575 63.9994 132.85 64.2299C133.305 64.8646 133.515 65.6426 133.44 66.4199V90.5699C133.44 91.0699 133.17 91.3199 132.61 91.3199H128.34C128.092 91.3479 127.842 91.2915 127.63 91.1599C127.507 90.9891 127.45 90.7794 127.47 90.5699V72.8099H127.28ZM144.63 90.4899C144.63 90.8299 144.58 91.0499 144.46 91.1399C144.235 91.2555 143.982 91.3041 143.73 91.2799H139.78C139.2 91.2799 138.91 91.0099 138.91 90.4899V71.3099C138.91 70.8099 139.2 70.5599 139.78 70.5599H143.73C143.982 70.5357 144.235 70.5843 144.46 70.6999C144.58 70.7899 144.63 70.9999 144.63 71.3099V78.0599H152.01V71.3099C152.01 70.8099 152.3 70.5599 152.89 70.5599H156.89C157.136 70.5317 157.384 70.5807 157.6 70.6999C157.666 70.7857 157.714 70.8839 157.742 70.9887C157.769 71.0935 157.776 71.2027 157.76 71.3099V90.4899C157.76 90.8299 157.76 91.0499 157.6 91.1399C157.384 91.2591 157.136 91.3081 156.89 91.2799H152.89C152.3 91.2799 152.01 91.0099 152.01 90.4899V82.5599H144.63V90.4899ZM172.76 75.2199V90.4899C172.76 90.8299 172.7 91.0499 172.58 91.1399C172.356 91.2572 172.102 91.3059 171.85 91.2799H167.95C167.34 91.2799 167.04 91.0099 167.04 90.4899V75.2199H161.44C160.91 75.2199 160.65 74.9299 160.65 74.3499V71.4699C160.626 71.2182 160.674 70.9648 160.79 70.7399C160.88 70.6199 161.1 70.5599 161.44 70.5599H178.44C178.552 70.545 178.665 70.5533 178.774 70.5842C178.882 70.6152 178.983 70.6682 179.07 70.7399C179.205 70.9581 179.261 71.2155 179.23 71.4699V74.3499C179.23 74.9299 178.97 75.2199 178.44 75.2199H172.76ZM190.04 70.0499C193.12 70.0499 195.427 70.8199 196.96 72.3599C197.77 73.2496 198.392 74.2935 198.789 75.4293C199.186 76.5651 199.35 77.7694 199.27 78.9699C199.386 79.9709 199.102 80.9773 198.48 81.7699C197.885 82.2978 197.104 82.5675 196.31 82.5199H186.21C186.214 83.2371 186.357 83.9469 186.63 84.6099C186.854 85.1289 187.196 85.5879 187.63 85.9499C188.064 86.2944 188.57 86.537 189.11 86.6599C189.714 86.7955 190.331 86.8626 190.95 86.8599C191.735 86.8583 192.517 86.7644 193.28 86.5799C194.033 86.4081 194.769 86.1705 195.48 85.8699C195.688 85.7801 195.915 85.7457 196.14 85.7699C196.293 85.852 196.41 85.9872 196.47 86.1499L197.73 88.9899C197.782 89.0707 197.814 89.1624 197.825 89.2578C197.835 89.3533 197.823 89.4498 197.79 89.5399C197.694 89.7067 197.551 89.8421 197.38 89.9299C196.344 90.591 195.195 91.0555 193.99 91.2999C192.811 91.559 191.608 91.6964 190.4 91.7099C186.95 91.7099 184.4 90.8499 182.74 89.1499C181.08 87.4499 180.26 84.7299 180.26 81.0199C180.235 79.446 180.468 77.8786 180.95 76.3799C181.376 75.106 182.056 73.9322 182.95 72.9299C183.798 71.9859 184.852 71.2502 186.03 70.7799C187.305 70.2839 188.662 70.0361 190.03 70.0499H190.04ZM190.16 74.7899C189.663 74.7741 189.169 74.8681 188.713 75.0652C188.256 75.2622 187.849 75.5575 187.52 75.9299C186.812 76.7451 186.393 77.7719 186.33 78.8499H193.71C193.714 78.3047 193.654 77.7609 193.53 77.2299C193.429 76.7691 193.235 76.3337 192.96 75.9499C192.683 75.5789 192.314 75.286 191.89 75.0999C191.343 74.8715 190.752 74.7657 190.16 74.7899ZM209.16 98.6499C209.16 98.9399 209.16 99.1299 209.03 99.1999C208.816 99.3043 208.577 99.3459 208.34 99.3199H204.27C204.053 99.3354 203.836 99.294 203.64 99.1999C203.51 99.1299 203.44 98.9399 203.44 98.6499V72.9299C203.431 72.692 203.479 72.4553 203.58 72.2399C203.744 72.0065 203.969 71.823 204.23 71.7099C205.578 71.1036 207.006 70.6929 208.47 70.4899C209.952 70.2567 211.45 70.1364 212.95 70.1299C214.565 70.0808 216.173 70.3703 217.67 70.9799C218.864 71.4834 219.917 72.2693 220.74 73.2699C221.542 74.2706 222.115 75.4344 222.42 76.6799C222.768 78.0592 222.94 79.4773 222.93 80.8999C222.941 82.3054 222.755 83.7055 222.38 85.0599C222.041 86.2965 221.463 87.4549 220.68 88.4699C219.903 89.4558 218.907 90.2467 217.77 90.7799C216.473 91.3742 215.057 91.6649 213.63 91.6299C212.899 91.6341 212.168 91.6007 211.44 91.5299C210.674 91.4511 209.912 91.3276 209.16 91.1599V98.6499V98.6499ZM216.94 80.7799C216.959 79.8629 216.851 78.9476 216.62 78.0599C216.449 77.4038 216.131 76.7952 215.69 76.2799C215.279 75.8381 214.758 75.5137 214.18 75.3399C213.532 75.1445 212.857 75.0501 212.18 75.0599C211.698 75.0696 211.217 75.1096 210.74 75.1799C210.209 75.2438 209.684 75.3508 209.17 75.4999V86.2699C209.773 86.4347 210.389 86.5517 211.01 86.6199C211.56 86.6699 212.01 86.6999 212.47 86.6999C213.073 86.7191 213.673 86.6095 214.23 86.3784C214.787 86.1473 215.288 85.8001 215.7 85.3599C216.53 84.4599 216.95 82.9399 216.95 80.7799H216.94ZM232.99 90.4899C232.99 90.8299 232.93 91.0499 232.81 91.1399C232.585 91.2555 232.332 91.3041 232.08 91.2799H228.14C227.56 91.2799 227.27 91.0099 227.27 90.4899V71.3099C227.27 70.8099 227.56 70.5599 228.14 70.5599H232.08C232.332 70.5357 232.585 70.5843 232.81 70.6999C232.882 70.7825 232.936 70.8799 232.967 70.9852C232.998 71.0905 233.006 71.2013 232.99 71.3099V78.0599H240.37V71.3099C240.37 70.8099 240.66 70.5599 241.24 70.5599H245.24C245.489 70.5323 245.74 70.5811 245.96 70.6999C246.026 70.7857 246.074 70.8839 246.102 70.9887C246.129 71.0935 246.136 71.2027 246.12 71.3099V90.4899C246.12 90.8299 246.07 91.0499 245.96 91.1399C245.74 91.2587 245.489 91.3076 245.24 91.2799H241.24C240.66 91.2799 240.37 91.0099 240.37 90.4899V82.5599H232.99V90.4899V90.4899ZM260.17 70.0499C263.25 70.0499 265.56 70.8199 267.1 72.3599C267.905 73.2523 268.524 74.2969 268.919 75.4322C269.314 76.5675 269.478 77.7704 269.4 78.9699C269.516 79.9709 269.232 80.9773 268.61 81.7699C268.015 82.2978 267.234 82.5675 266.44 82.5199H256.34C256.344 83.2371 256.487 83.9469 256.76 84.6099C256.981 85.1304 257.324 85.59 257.76 85.9499C258.189 86.296 258.692 86.5389 259.23 86.6599C259.834 86.7955 260.451 86.8626 261.07 86.8599C261.855 86.8583 262.637 86.7644 263.4 86.5799C264.156 86.4082 264.896 86.1706 265.61 85.8699C265.814 85.7796 266.038 85.7451 266.26 85.7699C266.413 85.852 266.53 85.9872 266.59 86.1499L267.85 88.9899C267.902 89.0707 267.934 89.1624 267.945 89.2578C267.955 89.3533 267.943 89.4498 267.91 89.5399C267.814 89.7067 267.671 89.8421 267.5 89.9299C266.465 90.5931 265.315 91.0577 264.11 91.2999C262.931 91.559 261.728 91.6964 260.52 91.7099C257.07 91.7099 254.52 90.8499 252.86 89.1499C251.2 87.4499 250.44 84.7299 250.44 81.0199C250.415 79.446 250.648 77.8786 251.13 76.3799C251.556 75.106 252.236 73.9322 253.13 72.9299C253.98 71.9881 255.033 71.2527 256.21 70.7799C257.485 70.2839 258.842 70.0361 260.21 70.0499H260.17ZM260.29 74.7899C259.793 74.7741 259.299 74.8681 258.843 75.0652C258.386 75.2622 257.979 75.5575 257.65 75.9299C256.942 76.7451 256.523 77.7719 256.46 78.8499H263.84C263.844 78.3047 263.784 77.7609 263.66 77.2299C263.559 76.7691 263.365 76.3337 263.09 75.9499C262.814 75.5815 262.45 75.289 262.03 75.0999C261.479 74.8725 260.886 74.7668 260.29 74.7899V74.7899ZM283.53 75.2199V90.4899C283.53 90.8299 283.47 91.0499 283.35 91.1399C283.125 91.2555 282.872 91.3041 282.62 91.2799H278.71C278.11 91.2799 277.81 91.0099 277.81 90.4899V75.2199H272.2C271.68 75.2199 271.41 74.9299 271.41 74.3499V71.4699C271.386 71.2182 271.434 70.9648 271.55 70.7399C271.64 70.6199 271.86 70.5599 272.2 70.5599H289.25C289.362 70.5467 289.475 70.5559 289.583 70.5868C289.691 70.6177 289.792 70.6697 289.88 70.7399C290.005 70.9616 290.057 71.2169 290.03 71.4699V74.3499C290.03 74.9299 289.77 75.2199 289.25 75.2199H283.53ZM316.07 90.5299C316.095 90.7398 316.037 90.9512 315.91 91.1199C315.699 91.253 315.448 91.3095 315.2 91.2799H310.9C310.35 91.2799 310.07 91.0299 310.07 90.5299V68.8699H299.44V90.5299C299.463 90.7382 299.41 90.9477 299.29 91.1199C299.078 91.2501 298.828 91.3063 298.58 91.2799H294.24C293.68 91.2799 293.41 91.0299 293.41 90.5299V66.2999C293.356 65.5866 293.558 64.8773 293.98 64.2999C294.246 64.0528 294.563 63.8666 294.908 63.7544C295.254 63.6421 295.62 63.6065 295.98 63.6499H313.62C313.981 63.6072 314.346 63.6431 314.691 63.7554C315.037 63.8676 315.354 64.0534 315.62 64.2999C316.028 64.8836 316.222 65.5899 316.17 66.2999V90.5299H316.07ZM339.15 88.7099C339.156 89.0059 339.108 89.3006 339.01 89.5799C338.864 89.8757 338.62 90.1123 338.32 90.2499C337.695 90.5506 337.042 90.7885 336.37 90.9599C335.672 91.1445 334.965 91.288 334.25 91.3899C333.53 91.5032 332.8 91.5832 332.06 91.6299C331.33 91.6299 330.63 91.7099 329.98 91.7099C328.487 91.745 326.996 91.5734 325.55 91.1999C324.526 90.9269 323.567 90.4508 322.73 89.7999C322.06 89.2448 321.546 88.5244 321.24 87.7099C320.638 85.952 320.666 84.0392 321.32 82.2999C321.657 81.4489 322.183 80.6861 322.86 80.0699C323.608 79.4024 324.486 78.8983 325.44 78.5899C326.633 78.2153 327.88 78.0363 329.13 78.0599H333.44V77.4199C333.441 77.0598 333.401 76.7009 333.32 76.3499C333.244 76.0157 333.074 75.7103 332.83 75.4699C332.53 75.1881 332.172 74.9763 331.78 74.8499C331.206 74.6809 330.608 74.6033 330.01 74.6199C329.61 74.6199 329.16 74.6399 328.66 74.6799L327.17 74.8299C326.67 74.8999 326.17 74.9799 325.71 75.0699C325.282 75.148 324.858 75.2481 324.44 75.3699C324.211 75.4567 323.959 75.4567 323.73 75.3699C323.652 75.3066 323.587 75.2277 323.541 75.1382C323.494 75.0487 323.467 74.9505 323.46 74.8499L322.83 72.0899C322.755 71.8936 322.755 71.6762 322.83 71.4799C322.924 71.3337 323.071 71.2298 323.24 71.1899C324.449 70.7603 325.699 70.4554 326.97 70.2799C328.255 70.0929 329.552 69.9993 330.85 69.9999C333.71 69.9999 335.807 70.6132 337.14 71.8399C337.84 72.549 338.38 73.3993 338.725 74.334C339.07 75.2686 339.212 76.2662 339.14 77.2599V88.6999L339.15 88.7099ZM333.44 81.8899H330.32C329.925 81.8883 329.531 81.9151 329.14 81.9699C328.732 82.0127 328.337 82.1386 327.98 82.3399C327.615 82.5414 327.308 82.8343 327.09 83.1899C326.828 83.6449 326.703 84.1657 326.73 84.6899C326.693 85.066 326.76 85.4449 326.924 85.7853C327.088 86.1257 327.343 86.4144 327.66 86.6199C328.429 87.0238 329.293 87.2138 330.16 87.1699C330.32 87.1699 330.53 87.1699 330.8 87.1699C331.07 87.1699 331.34 87.1699 331.64 87.0899C331.94 87.0099 332.26 86.9999 332.57 86.9399C332.867 86.8798 333.159 86.7928 333.44 86.6799V81.9099V81.8899ZM350.05 98.6499C350.05 98.9399 350 99.1299 349.91 99.1999C349.7 99.3057 349.464 99.3474 349.23 99.3199H345.15C344.933 99.334 344.716 99.2927 344.52 99.1999C344.39 99.1299 344.33 98.9399 344.33 98.6499V72.9299C344.318 72.6928 344.362 72.4563 344.46 72.2399C344.628 72.0065 344.856 71.8233 345.12 71.7099C346.468 71.1022 347.896 70.6914 349.36 70.4899C350.839 70.2564 352.333 70.1361 353.83 70.1299C355.446 70.0808 357.053 70.3703 358.55 70.9799C359.745 71.4858 360.801 72.2711 361.63 73.2699C362.425 74.2736 362.995 75.4366 363.3 76.6799C363.648 78.0592 363.82 79.4773 363.81 80.8999C363.821 82.3054 363.635 83.7055 363.26 85.0599C362.921 86.2965 362.344 87.4549 361.56 88.4699C360.785 89.4576 359.788 90.2489 358.65 90.7799C357.356 91.3743 355.944 91.6651 354.52 91.6299C353.786 91.6343 353.051 91.6009 352.32 91.5299C351.557 91.4518 350.799 91.3283 350.05 91.1599V98.6499V98.6499ZM357.82 80.7799C357.839 79.8629 357.731 78.9476 357.5 78.0599C357.333 77.4023 357.014 76.7928 356.57 76.2799C356.161 75.8358 355.639 75.511 355.06 75.3399C354.412 75.1434 353.737 75.049 353.06 75.0599C352.575 75.0691 352.09 75.1092 351.61 75.1799C351.082 75.2427 350.56 75.3497 350.05 75.4999V86.2699C350.653 86.4356 351.268 86.5526 351.89 86.6199C352.43 86.6699 352.89 86.6999 353.34 86.6999C353.943 86.7191 354.543 86.6095 355.1 86.3784C355.657 86.1473 356.158 85.8001 356.57 85.3599C357.4 84.4599 357.82 82.9399 357.82 80.7799ZM387.29 80.7799C387.29 84.2499 386.46 86.9399 384.8 88.7799C383.14 90.6199 380.62 91.6199 377.23 91.6199C373.84 91.6199 371.31 90.6699 369.73 88.7799C368.15 86.8899 367.37 84.2299 367.37 80.7799C367.35 79.2324 367.583 77.6921 368.06 76.2199C368.475 74.953 369.157 73.7901 370.06 72.8099C370.927 71.8794 371.989 71.1521 373.17 70.6799C374.498 70.162 375.915 69.9073 377.34 69.9299C380.65 69.9299 383.14 70.9299 384.81 72.7899C386.48 74.6499 387.32 77.3399 387.32 80.6999L387.29 80.7799ZM381.29 80.8999C381.294 80.079 381.227 79.2593 381.09 78.4499C380.985 77.7841 380.758 77.1433 380.42 76.5599C380.126 76.0492 379.706 75.6222 379.2 75.3199C378.637 75.0008 377.997 74.8417 377.35 74.8599C376.737 74.8228 376.126 74.9519 375.58 75.2335C375.034 75.5151 374.575 75.9388 374.25 76.4599C373.52 77.7785 373.174 79.2748 373.25 80.7799C373.158 82.3357 373.478 83.8883 374.18 85.2799C374.501 85.7913 374.956 86.2051 375.495 86.4766C376.035 86.748 376.638 86.8667 377.24 86.8199C377.894 86.8418 378.541 86.6826 379.11 86.3599C379.629 86.0515 380.062 85.6183 380.37 85.0999C380.716 84.5238 380.957 83.8906 381.08 83.2299C381.234 82.4629 381.307 81.6821 381.3 80.8999H381.29ZM407.6 70.5199C407.937 70.4808 408.277 70.5122 408.601 70.612C408.925 70.7119 409.224 70.878 409.48 71.0999C409.854 71.633 410.028 72.2812 409.97 72.9299V90.4899C409.986 90.5986 409.978 90.7093 409.947 90.8146C409.916 90.9199 409.862 91.0173 409.79 91.0999C409.565 91.2155 409.312 91.2641 409.06 91.2399H405.06C404.803 91.2711 404.543 91.2071 404.33 91.0599C404.192 90.888 404.128 90.669 404.15 90.4499V75.2199H399.3L399.18 77.2199C399.053 79.5066 398.883 81.4799 398.67 83.1399C398.511 84.5958 398.15 86.0226 397.6 87.3799C397.139 88.4957 396.407 89.4788 395.47 90.2399C394.372 91.0689 393.126 91.683 391.8 92.0499C391.43 92.1899 391.17 92.2099 391.01 92.1099C390.824 91.9823 390.687 91.7955 390.62 91.5799L389.55 88.8999C389.439 88.6736 389.394 88.4206 389.42 88.1699C389.42 88.0199 389.65 87.8599 389.99 87.6799C390.612 87.414 391.189 87.053 391.7 86.6099C392.189 86.1379 392.556 85.5546 392.77 84.9099C393.097 83.9577 393.316 82.9714 393.42 81.9699C393.58 80.7499 393.72 79.1399 393.85 77.1399L394.13 72.8399C394.106 72.1824 394.323 71.5388 394.74 71.0299C395.267 70.6328 395.923 70.4472 396.58 70.5099L407.6 70.5199ZM417.6 91.2399C417.242 91.288 416.877 91.2574 416.532 91.1504C416.186 91.0433 415.868 90.8623 415.6 90.6199C415.262 90.1311 415.097 89.5434 415.13 88.9499V71.3099C415.13 70.8099 415.42 70.5599 416 70.5599H419.94C420.192 70.5357 420.445 70.5843 420.67 70.6999C420.742 70.7825 420.796 70.8799 420.827 70.9852C420.858 71.0905 420.866 71.2013 420.85 71.3099V77.0299H425.74C427.301 76.9618 428.858 77.2384 430.3 77.8399C431.294 78.2944 432.165 78.9801 432.84 79.8399C433.383 80.523 433.756 81.3248 433.93 82.1799C434.055 82.8396 434.126 83.5086 434.14 84.1799C434.153 85.1368 433.96 86.0853 433.576 86.9616C433.191 87.8378 432.623 88.6215 431.91 89.2599C431.195 89.915 430.36 90.4245 429.45 90.7599C428.468 91.1381 427.423 91.3281 426.37 91.3199L417.6 91.2399ZM428.25 84.0199C428.267 83.3285 428.02 82.6565 427.56 82.1399C427.291 81.8702 426.966 81.6619 426.609 81.529C426.252 81.3961 425.87 81.3418 425.49 81.3699H420.84V86.7399H425.44C425.916 86.7574 426.389 86.6614 426.82 86.4599C427.161 86.303 427.46 86.0664 427.69 85.7699C427.897 85.5073 428.047 85.2041 428.13 84.8799C428.21 84.6132 428.257 84.3379 428.27 84.0599L428.25 84.0199Z" fill="black"/>
</g>
<defs>
<clipPath id="clip0_28_30472">
<rect width="434.38" height="99.32" fill="white"/>
</clipPath>
</defs>
</svg>
