<svg width="68" height="68" viewBox="0 0 68 68" fill="none" xmlns="http://www.w3.org/2000/svg">
<path d="M29.7159 58.2288C29.9903 57.0625 30.2499 55.9098 30.5337 54.7631C30.9874 52.9301 31.6792 51.1945 32.7777 49.6425C32.9831 49.3522 32.9233 49.2106 32.7106 48.9626C32.1271 48.2822 31.5627 47.5816 31.0434 46.852C30.4817 46.0631 30.3619 45.161 30.6109 44.2344C31.0512 42.5965 32.6296 41.7346 34.2333 42.3309C34.7496 42.5229 35.1529 43.0157 35.6618 43.4131C36.0463 42.776 36.6844 42.2916 37.6079 42.2901C38.4584 42.2886 39.2392 42.4683 39.8222 43.0954C40.652 42.8808 40.5611 42.0141 41.07 41.4289C41.1412 41.7772 41.1886 42.0087 41.2458 42.2887C41.8791 41.9656 42.4871 41.6554 43.1784 41.3027C40.7984 39.4885 38.2371 38.1291 35.7237 36.7287C35.144 37.6494 34.5976 38.5493 34.0187 39.4282C33.363 40.4235 33.2654 40.4135 32.5554 39.4584C31.8967 38.5721 31.2264 37.6942 30.5428 36.7882C29.4728 37.7039 28.6389 38.7308 27.9195 39.8553C27.5024 40.5073 27.3132 40.5449 26.791 39.9879C25.5624 38.6773 24.3574 37.3447 23.1294 36.0337C23.0284 35.9259 22.7821 35.8209 22.6748 35.8698C20.0822 37.0503 17.515 38.2796 15.2078 39.9741C13.7556 41.0406 12.9209 42.5361 12.4144 44.197C11.3404 47.7189 10.3368 51.262 9.31106 54.7985C8.89196 56.2435 8.42462 57.6792 8.10326 59.146C7.89019 60.1187 7.83605 61.1387 7.83247 62.138C7.83083 62.6056 8.079 63.0912 8.28202 63.5382C8.5619 64.1544 9.08851 64.4062 9.76893 64.4039C11.7945 64.3972 13.6703 63.8323 15.4792 62.9687C17.2259 62.1348 18.8807 61.156 20.4765 60.0634C21.616 59.2832 22.8278 58.6079 23.9803 57.8455C24.3618 57.5931 24.6588 57.2145 24.9673 56.8196C24.0701 56.5919 23.5126 56.0872 23.1847 55.3172C22.8706 54.5794 22.6915 53.8334 23.126 52.9312C22.7584 53.0719 22.5116 53.1627 22.2674 53.2603C21.1653 53.7013 20.0573 54.1288 18.9648 54.5925C18.3614 54.8487 17.7752 55.1497 17.1977 55.4607C16.2931 55.9479 15.4258 56.5089 14.4995 56.9487C13.6272 57.3627 12.8331 57.8489 12.2015 58.5808C12.0247 58.7857 11.8106 58.9885 11.5511 58.7611C11.2633 58.509 11.4828 58.2822 11.6663 58.0648C12.3999 57.1958 13.3575 56.6625 14.3717 56.1825C15.1827 55.7985 15.9327 55.2893 16.7329 54.8805C17.5299 54.4733 18.3492 54.107 19.1706 53.7499C20.0679 53.3598 20.9927 53.0299 21.879 52.6177C22.4506 52.3519 23.012 52.1847 23.6464 52.2571C23.8033 52.275 23.9783 52.1935 24.1355 52.1332C24.2537 52.088 24.3569 51.9462 24.4668 51.9461C25.2167 51.9452 25.0745 51.4255 25.0564 50.9779C25.0344 50.4339 24.9907 49.8904 24.9832 49.3465C24.9709 48.4392 25.1043 47.5501 25.5158 46.7332C26.0846 45.6043 26.6642 44.479 27.2902 43.3809C27.6451 42.7584 28.1407 42.7973 28.4938 43.4182C28.7708 43.9053 28.834 44.3967 28.5784 44.9301C28.3089 45.4925 28.0448 46.0659 27.8666 46.6607C27.7248 47.1341 27.7158 47.6469 27.6479 48.1422C27.7046 48.1545 27.7613 48.1668 27.818 48.1792C27.8903 48.0145 27.9358 47.8296 28.0418 47.6902C28.1678 47.5246 28.3402 47.2921 28.5029 47.2835C28.6736 47.2746 28.9339 47.458 29.0183 47.6254C29.1944 47.975 29.3981 48.3745 29.382 48.7446C29.3297 49.942 29.226 51.1411 29.0615 52.3284C28.8756 53.6707 28.1411 54.6616 26.8966 55.2556C26.8243 55.2901 26.7559 55.3336 26.6878 55.3761C26.6615 55.3925 26.6409 55.418 26.591 55.4637C26.8396 55.9077 26.5617 56.1359 26.191 56.3018C25.9137 56.4261 25.7843 56.6106 25.6587 56.9047C25.4576 57.3757 25.1902 57.9376 24.7818 58.1834C21.8222 59.9633 19.0883 62.1073 15.939 63.5826C14.2181 64.3888 12.448 64.9812 10.5409 65.1305C8.47924 65.292 7.35991 64.4045 7.07007 62.3521C6.91538 61.2567 7.02492 60.1717 7.31882 59.1156C7.92402 56.9408 8.56993 54.7774 9.19205 52.6073C9.94208 49.991 10.7241 47.3829 11.4206 44.7525C12.2619 41.575 14.1889 39.3188 17.0996 37.8407C18.7194 37.0183 20.3371 36.1918 21.9562 35.3682C22.1928 35.2479 22.4716 35.1853 22.4998 34.8374C22.5069 34.7489 22.6224 34.6504 22.7112 34.5899C23.6405 33.9567 24.5669 33.3187 25.5123 32.7099C25.7546 32.554 26.0612 32.4969 26.3383 32.3943C26.3842 32.421 26.4301 32.4479 26.476 32.4746C26.5997 31.8216 26.7619 31.1729 26.8373 30.5143C26.9355 29.6559 26.9773 28.7903 27.0129 27.9266C27.0196 27.7657 26.917 27.5695 26.8056 27.4398C26.231 26.7702 25.6496 26.1054 25.0467 25.4609C24.2396 24.5981 23.8895 23.558 23.7773 22.4141C23.7555 22.1928 23.7252 21.9724 23.7006 21.7677C23.6466 21.7402 23.6144 21.7088 23.5925 21.7148C22.629 21.978 22.0824 21.5112 21.6839 20.6957C21.1485 19.5999 20.5442 18.5346 20.601 17.2554C20.6395 16.3889 20.7955 15.6002 21.6831 15.1559C21.7989 15.0979 21.8564 14.8395 21.8656 14.67C21.9749 12.6524 22.213 10.657 22.6382 8.67491C23.3853 5.19201 25.5237 2.9352 28.8451 1.87709C34.2077 0.16875 39.2592 0.9618 43.8646 4.20502C45.9963 5.70616 47.0689 7.89695 47.4622 10.4041C48.0644 14.243 46.6513 17.4209 44.0934 20.2153C43.6947 20.6508 43.4561 21.2458 43.2037 21.7945C42.9907 22.2579 42.8366 22.7535 42.7057 23.2477C42.1839 25.2184 41.1071 26.8502 39.573 28.1635C38.1969 29.3414 36.7736 30.4698 35.3149 31.5446C34.8784 31.8662 34.2599 31.9597 33.7111 32.1078C33.4664 32.174 33.1562 32.0303 33.0881 32.4372C33.0209 32.8392 32.8216 33.2313 33.2779 33.5657C34.0552 34.1354 34.8149 34.7298 35.5647 35.3349C35.738 35.4748 35.8318 35.7081 35.9802 35.8835C36.0868 36.0095 36.2084 36.1348 36.3485 36.2191C38.4829 37.5031 40.6227 38.7784 42.7576 40.0619C42.977 40.1938 43.2063 40.3352 43.3728 40.5231C43.757 40.9568 44.1155 40.8967 44.5248 40.5669C44.8367 40.3157 45.2046 40.1296 45.4983 39.8612C45.6261 39.7445 45.6828 39.4932 45.6799 39.3045C45.6732 38.8591 45.4719 38.711 44.9753 38.7849C43.9875 38.9319 43.0923 38.3187 42.759 37.243C42.39 36.0518 42.1125 34.832 41.8131 33.6202C41.7259 33.2673 41.9613 33.0396 42.3575 33.1134C42.7823 33.1925 43.2301 33.2735 43.604 33.4724C44.3529 33.8709 45.1031 34.2931 45.7714 34.8093C46.8425 35.6368 46.9737 36.8587 46.2967 38.0177C46.1534 38.2631 46.2759 38.662 46.2759 38.9902C46.3346 39.0142 46.3934 39.0382 46.4522 39.0621C47.2261 38.1023 48.0001 37.1424 48.8524 36.0854C48.1305 36.0633 47.8525 35.682 47.5747 35.221C47.3988 34.9291 47.0524 34.7019 46.7338 34.5403C46.2622 34.3012 46.0825 33.963 46.1236 33.4585C46.1638 32.9642 46.1301 32.4586 46.2216 31.9754C46.2932 31.5975 46.5181 31.2504 46.653 30.8817C46.7335 30.6614 46.8512 30.4116 46.8126 30.2003C46.7364 29.7829 46.8432 29.5009 47.1725 29.2394C47.6625 28.8501 48.1741 28.4677 48.5812 28.0003C49.0838 27.4231 49.9291 27.3706 50.5287 27.9468C50.6465 27.8236 50.7636 27.6998 50.8823 27.5773C51.1529 27.2981 51.457 27.1248 51.8725 27.2059C52.0051 27.2317 52.1541 27.1612 52.2938 27.1684C52.6418 27.1865 52.9979 27.1853 53.3341 27.2629C53.8316 27.3775 54.3194 27.541 54.8018 27.7103C54.973 27.7704 55.16 27.8763 55.2643 28.0166C55.5401 28.3879 55.77 28.7925 56.0269 29.1781C56.3112 29.6048 56.3251 30.0732 56.1406 30.5128C55.9633 30.9349 56.0494 31.2918 56.2362 31.6568C56.4479 32.0706 56.6676 32.4806 56.8942 32.8865C57.0938 33.244 57.0119 33.5473 56.6401 33.6628C55.8892 33.8961 55.536 34.3206 55.5402 35.1418C55.5435 35.7809 55.1007 36.1771 54.4837 36.4346C53.9289 36.6663 53.4154 37.0125 52.9166 37.3554C52.3883 37.7185 52.2994 37.698 51.7605 37.3862C51.1263 37.0191 50.442 36.7346 49.7667 36.4435C49.6696 36.4016 49.4516 36.4825 49.375 36.5759C49.0915 36.9212 48.8439 37.2955 48.5596 37.6913C48.8136 37.8534 49.0464 38.0021 49.2793 38.1508C49.2746 38.205 49.2699 38.2592 49.2652 38.3134C48.9884 38.3333 48.7067 38.3934 48.4356 38.3626C48.1219 38.3268 47.9269 38.4266 47.7415 38.6675C47.4975 38.9846 47.2112 39.2691 46.9487 39.5724C46.6975 39.8628 46.4535 40.1593 46.1974 40.4636C46.3519 40.4263 46.6236 40.4429 46.7554 40.3158C47.6382 39.4646 48.6467 39.8215 49.3763 40.5208C50.0379 41.1548 50.4492 41.9566 50.6504 42.8515C50.7516 43.3011 50.5513 43.4905 50.094 43.3962C49.353 43.2435 48.6172 43.0648 47.8736 42.9268C47.1653 42.7955 46.7369 42.3856 46.4981 41.7274C46.4215 41.516 46.3021 41.1885 46.1542 41.16C45.7738 41.0866 45.3635 41.1252 44.9716 41.1724C44.8152 41.1912 44.6758 41.3505 44.3794 41.5426C44.6713 41.7761 44.9515 41.9456 45.1624 42.1774C47.2634 44.4861 48.8757 47.113 50.3082 49.8711C51.1486 51.4892 52.1307 53.0356 53.0711 54.6012C54.2435 56.5531 55.4316 58.4982 56.2357 60.6368C56.6688 61.7886 56.5601 62.9782 56.2383 64.1371C56.0056 64.9754 55.3949 65.4911 54.5558 65.7043C53.5803 65.952 52.6185 65.89 51.7686 65.3161C49.4445 63.7469 47.2971 61.9607 45.3263 59.9703C45.0255 59.6665 44.8215 59.2693 44.5622 58.9232C44.3807 58.681 44.2119 58.4158 43.9835 58.2245C43.3241 57.6718 42.9873 56.9737 42.9618 56.1312C42.9485 55.6889 42.8725 55.2853 42.5993 54.9217C42.5085 54.8009 42.4853 54.63 42.4051 54.4107C42.1393 54.5199 41.8492 54.6028 41.5957 54.7488C39.0046 56.241 36.2208 56.2505 33.3804 55.8138C32.62 55.697 32.4512 55.2361 32.9245 54.634C33.2255 54.251 33.6028 54.0098 34.1081 53.9782C34.8795 53.9301 35.6533 53.8932 36.4192 53.797C36.8887 53.738 37.3454 53.5771 37.8079 53.4621C37.8038 53.4204 37.7996 53.3789 37.7955 53.3373C37.6058 53.3373 37.4155 53.3472 37.2267 53.3353C36.7962 53.3083 36.5272 53.0219 36.6787 52.6315C36.8146 52.2814 37.0494 51.819 37.352 51.709C38.6925 51.2218 40.0616 50.7992 41.4431 50.4402C42.5279 50.1583 43.4429 50.6054 44.2882 51.2895C44.7967 51.701 45.3964 52.0016 45.9582 52.3471C46.0085 52.378 46.0843 52.3922 46.1427 52.382C46.8638 52.2561 47.388 52.6141 47.853 53.0847C48.721 53.9632 49.5769 54.8538 50.4356 55.7415C51.094 56.4222 51.7773 57.082 52.396 57.797C52.8438 58.3145 53.2272 58.893 53.5855 59.4769C53.6703 59.6152 53.5389 59.8846 53.5069 60.0936C53.3161 59.9966 53.0688 59.9452 52.9449 59.7941C52.4997 59.2508 52.1442 58.6297 51.6679 58.1179C50.2907 56.6379 48.8743 55.1939 47.4654 53.7434C47.2496 53.5212 46.9921 53.339 46.7026 53.0952C46.8082 54.9817 45.7075 56.1249 43.7649 56.2506C43.7292 56.7913 43.9982 57.1808 44.3593 57.5537C44.7022 57.9078 44.9782 58.3252 45.3094 58.6916C45.9737 59.4266 46.5958 60.2146 47.3431 60.8567C48.8033 62.1113 50.3321 63.2875 51.8438 64.482C52.4491 64.9603 53.1531 65.1448 53.9294 65.0682C54.8761 64.9746 55.4084 64.5326 55.6053 63.6164C55.88 62.3384 55.7451 61.1115 55.1686 59.9227C53.9422 57.3936 52.4177 55.0382 50.9675 52.6368C49.9411 50.9373 49.1087 49.1226 48.0927 47.4163C46.9687 45.5285 45.7029 43.7307 44.1287 42.1682C43.8678 41.9092 43.6677 41.8698 43.3445 42.0526C42.4495 42.5588 41.5371 43.0349 40.6269 43.514C40.3537 43.6579 40.2914 43.8127 40.407 44.1237C40.8106 45.2096 40.644 46.2305 39.9601 47.17C38.8397 48.7091 37.4033 49.9092 35.8427 50.9775C35.5759 51.1601 35.3337 51.1218 35.0895 50.9367C34.6043 50.569 34.1161 50.2055 33.5683 49.7945C33.2301 50.3322 32.903 50.8521 32.5842 51.3587C32.6334 51.4199 32.6472 51.4539 32.6711 51.4641C32.8634 51.5467 33.0577 51.6247 33.2514 51.7042C33.0623 51.8257 32.8875 52.0071 32.681 52.0562C32.2494 52.1589 32.0625 52.4211 31.9203 52.8162C30.7416 56.0929 30.1814 59.4714 30.1771 62.9464C30.176 63.7792 30.1695 64.612 30.1668 65.4449C30.1659 65.7169 30.1368 66.0031 29.7896 66C29.452 65.9969 29.3984 65.7166 29.4069 65.4425C29.4662 63.5222 29.5101 61.6012 29.6049 59.6826C29.6261 59.2547 29.5455 58.949 29.2287 58.6686C29.1048 58.5588 29.0573 58.3639 28.975 58.2079C29.1622 58.2092 29.3495 58.2093 29.5368 58.2128C29.5992 58.2138 29.6615 58.2237 29.7159 58.2288ZM41.9808 23.0216C41.6324 23.0588 41.3207 22.5738 41.0616 23.0422C40.8206 23.4778 40.5056 23.6941 40.012 23.626C39.5491 23.5621 39.2044 23.1977 39.0529 22.7197C39.0025 22.5607 38.812 22.449 38.7001 22.3046C38.6096 22.1879 38.4518 22.0227 38.4832 21.9363C38.53 21.8078 38.7044 21.6966 38.849 21.6415C38.9547 21.6011 39.1016 21.6544 39.2272 21.68C40.2166 21.8814 41.2053 22.0863 42.2271 22.2969C42.3379 22.0064 42.4461 21.7085 42.5645 21.4148C42.8299 20.7567 42.6872 20.5146 41.9836 20.3639C41.1041 20.1756 40.23 19.9621 39.3529 19.7627C39.2802 19.7462 39.1862 19.7249 39.1289 19.7555C38.2926 20.201 37.5129 20.7108 37.217 21.6816C36.9577 22.5325 36.8477 23.3991 36.9695 24.2902C37.0235 24.6856 37.0519 25.0875 37.0539 25.4866C37.0573 26.1756 36.2765 27.0443 35.5875 27.1126C35.4607 27.1251 35.2513 27.0289 35.205 26.9269C35.1586 26.8248 35.2309 26.6191 35.3198 26.5193C35.4317 26.3939 35.6111 26.3259 35.7654 26.2405C36.225 25.986 36.4209 25.6174 36.3323 25.0865C36.2691 24.7084 36.2424 24.3228 36.2236 23.9393C36.1251 21.9353 36.6195 20.223 38.5682 19.2149C38.7084 19.1424 38.8314 18.9454 38.8691 18.7847C39.0301 18.0976 39.5559 17.7662 40.2422 17.9747C40.857 18.1615 41.4622 18.3798 42.0772 18.5656C42.6521 18.7394 43.2792 18.8014 43.618 19.4195C44.4083 18.1411 44.3367 17.3944 43.4388 16.5907C43.0328 16.2274 42.6502 15.8307 42.2089 15.5158C40.9565 14.622 39.9592 13.5154 39.2154 12.1752C38.9145 11.6332 38.5906 11.1037 38.2765 10.5676C38.1975 10.6071 38.1523 10.6248 38.1124 10.6504C35.4984 12.3313 32.8429 13.9318 29.8269 14.822C28.7444 15.1416 27.7666 15.6898 27.1289 16.5901C26.3865 17.6383 25.559 17.6578 24.4889 17.2523C23.8383 17.0058 23.2045 16.8666 22.85 16.1475C22.5676 15.5743 21.8338 15.663 21.5252 16.2489C21.4665 16.3602 21.4318 16.4881 21.4074 16.6125C21.0828 18.2668 21.8665 19.6018 22.6979 20.9085C22.9044 21.233 23.5504 21.0402 23.6926 20.6831C23.7494 20.5405 23.9343 20.4482 24.0608 20.3331C24.1691 20.4688 24.351 20.594 24.3722 20.742C24.4399 21.2161 24.4354 21.6997 24.482 22.1774C24.565 23.0276 24.6989 23.8696 25.26 24.5625C27.0106 26.7244 28.9545 28.7069 31.0274 30.5598C32.1709 31.5819 33.9675 31.6371 35.2217 30.7744C36.8809 29.6331 38.4207 28.3508 39.8223 26.905C40.8717 25.8226 41.6012 24.5683 41.9808 23.0216ZM39.6417 44.2247C39.4331 44.3764 39.2625 44.4876 39.1062 44.6161C38.2266 45.3395 37.3514 46.0686 36.472 46.7923C36.2534 46.9723 36.0082 47.2509 35.7382 46.9239C35.5056 46.6422 35.7501 46.427 35.9677 46.2453C36.7069 45.6286 37.4443 45.0097 38.1858 44.3957C38.5156 44.1225 38.8535 43.8588 39.19 43.589C38.4485 42.8132 37.0569 42.8507 36.4341 43.6436C36.2274 43.9067 36.0673 44.2056 35.8809 44.4848C35.6236 44.8701 35.3349 44.8522 35.129 44.4429C34.9997 44.1859 34.9097 43.8944 34.7266 43.683C34.4956 43.4161 34.2225 43.1027 33.9065 43.0054C32.6467 42.6175 31.5763 43.2987 31.3025 44.5808C31.1648 45.2254 31.2824 45.8163 31.6224 46.3745C32.5551 47.9058 33.8129 49.1267 35.2803 50.1426C35.3778 50.2101 35.5975 50.2218 35.6911 50.1584C37.1355 49.1787 38.4388 48.0448 39.4392 46.604C39.9407 45.8821 39.9883 45.1027 39.6417 44.2247ZM27.8957 28.4511C27.8482 28.4878 27.8007 28.5245 27.7531 28.5613C27.7447 28.656 27.7356 28.7506 27.7281 28.8452C27.6037 30.4043 27.5762 31.9803 26.8134 33.4186C26.7546 33.5296 26.8727 33.8182 26.9957 33.9261C27.8444 34.6708 28.7585 35.3093 29.877 35.6131C30.7327 35.8456 31.8466 35.4108 32.2581 34.6304C32.3229 34.5075 32.3773 34.3588 32.3734 34.2239C32.3518 33.4853 32.3106 32.7474 32.2732 31.9446C31.383 31.8007 30.6015 31.2577 29.9185 30.5546C29.2407 29.8568 28.5697 29.1526 27.8957 28.4511ZM25.6955 33.4238C24.8974 33.9751 24.1259 34.508 23.2492 35.1136C24.6134 36.6007 25.9175 38.0224 27.1986 39.4189C28.0859 38.3569 28.9084 37.3726 29.7367 36.3814C28.1248 35.799 26.6668 35.004 25.6955 33.4238ZM33.4943 54.96C33.6635 55.0694 33.7001 55.1125 33.7408 55.1167C35.9067 55.3375 38.0748 55.5812 40.1419 54.5959C40.5914 54.3817 41.0295 54.1257 41.5013 53.9807C42.0102 53.8244 42.5531 53.7773 43.0804 53.6787C43.1973 53.6568 43.3472 53.6544 43.4206 53.5817C43.7794 53.2264 44.1175 52.8504 44.4549 52.4902C43.5079 51.4677 42.5038 50.8048 41.1186 51.2268C39.9824 51.5729 38.8565 51.9525 37.7289 52.3256C37.6615 52.3479 37.6191 52.445 37.5074 52.5738C37.7542 52.5435 37.912 52.5314 38.067 52.504C38.7322 52.3866 39.3938 52.2447 40.063 52.1586C40.2258 52.1376 40.4457 52.2613 40.5698 52.3866C40.6174 52.4345 40.5157 52.7464 40.4054 52.8134C39.0619 53.6295 37.742 54.5133 36.0912 54.5983C35.497 54.6289 34.9008 54.6423 34.3094 54.7013C34.0651 54.7256 33.8309 54.8493 33.4943 54.96ZM26.0186 54.8794C26.2672 54.7573 26.3665 54.7039 26.4694 54.6586C28.1321 53.9273 28.6149 52.5828 27.9406 50.8651C27.6834 50.21 27.4555 49.5433 27.2236 48.8787C26.8989 47.9478 26.935 47.0224 27.2978 46.1092C27.4928 45.6186 27.7159 45.1382 27.8908 44.6409C27.9654 44.4289 27.9491 44.1853 27.9742 43.9562C27.9178 43.9422 27.8615 43.9282 27.8052 43.914C27.5701 44.3245 27.3414 44.7386 27.0989 45.1447C26.0155 46.9599 25.4451 48.8847 25.8001 51.0153C25.8969 51.5966 25.7266 52.1213 25.4161 52.6126C25.3436 52.7271 25.2388 52.8934 25.274 52.9915C25.4975 53.6149 25.7561 54.2259 26.0186 54.8794ZM33.3555 39.2395C33.9589 38.156 34.5139 37.1714 35.0489 36.1762C35.0948 36.091 35.0517 35.8823 34.976 35.8205C34.3985 35.3497 33.8027 34.9012 33.1633 34.4078C32.8385 35.4595 32.1047 36.0083 31.1253 36.3261C31.8595 37.2854 32.5545 38.1931 33.3555 39.2395ZM53.9463 30.4597C54.1129 29.8572 53.9279 29.4578 53.5831 29.2435C53.0451 28.909 52.5166 28.5519 52.0244 28.155C51.7402 27.9258 51.5452 27.8658 51.3168 28.1828C50.9853 28.6429 50.5321 28.9106 49.991 29.0857C49.7949 29.1491 49.6127 29.3724 49.5063 29.5671C49.2924 29.9584 49.1181 30.3739 48.9638 30.7927C48.9141 30.9275 48.9263 31.134 48.9985 31.2564C49.5745 32.2329 50.1968 33.1833 50.7506 34.1717C50.9798 34.581 51.1893 34.6621 51.6148 34.3609C51.2716 33.7414 50.9187 33.1381 50.5986 32.518C50.1718 31.6913 49.866 30.8309 50.2526 29.9052C50.3156 29.7546 50.5727 29.6841 50.7402 29.5765C50.802 29.7524 50.8889 29.9245 50.9171 30.1056C50.9361 30.2279 50.8723 30.3628 50.8456 30.4921C50.9024 30.5153 50.9592 30.5385 51.016 30.5617C51.0911 30.4223 51.1901 30.2902 51.2373 30.1419C51.4399 29.5052 51.7335 29.3078 52.3892 29.4215C53.0174 29.5306 53.6017 29.7263 53.9463 30.4597ZM52.3064 34.7822C51.275 35.5987 50.687 35.4934 50.0613 34.378C49.9094 34.1073 49.7365 34.0635 49.4463 34.19C49.4997 34.4911 49.5765 34.7858 49.5989 35.0845C49.6294 35.4917 49.8363 35.69 50.2138 35.8385C50.8538 36.0902 51.4599 36.4255 52.0932 36.6959C52.2299 36.7542 52.4472 36.7371 52.5826 36.668C53.1798 36.3636 53.7541 36.0152 54.3497 35.7077C54.7108 35.5213 54.8506 35.2468 54.8361 34.892C54.4249 35.08 54.0115 35.4293 53.6221 35.4046C53.1813 35.3768 52.762 35.0135 52.3064 34.7822ZM56.0925 33.0159C55.8485 32.4795 55.5766 31.936 55.3519 31.3739C55.0655 30.6574 54.9647 30.6132 54.2598 31.0564C54.5309 31.5481 54.2809 31.8258 53.8264 32.0105C53.7377 32.0465 53.6239 32.0793 53.5779 32.1498C53.4958 32.2759 53.3972 32.4402 53.4201 32.5681C53.4354 32.6534 53.703 32.7912 53.765 32.7538C53.992 32.617 54.2108 32.4405 54.3741 32.2333C54.5284 32.0374 54.6415 31.7825 54.9316 31.9238C55.2428 32.0754 55.1471 32.3386 55.0257 32.5853C54.6546 33.3397 54.3027 33.5355 53.4521 33.49C53.0634 33.4693 52.6728 33.4865 52.2672 33.4865C52.3413 33.9336 53.4649 34.7438 53.7703 34.6549C53.8289 34.6379 53.8777 34.5862 53.93 34.5492C54.6467 34.0414 55.3631 33.5333 56.0925 33.0159ZM45.2554 37.9782C45.0954 37.6546 44.9904 37.3489 44.8101 37.0963C44.3828 36.4977 43.907 35.9333 43.4807 35.3341C43.3834 35.1972 43.4071 34.9754 43.3751 34.7926C43.5555 34.8292 43.7416 34.8496 43.9138 34.9096C43.9946 34.9376 44.0524 35.0386 44.1138 35.1122C44.7002 35.814 45.2851 36.517 45.8798 37.2308C46.0716 36.8181 46.0195 36.3742 45.7691 35.9913C45.0686 34.9201 43.984 34.3853 42.8074 33.9996C42.7908 33.9941 42.7593 34.0333 42.7329 34.0531C42.9612 34.9998 43.1603 35.9549 43.4261 36.8912C43.6866 37.8094 44.2867 38.1656 45.2554 37.9782ZM43.3248 54.7634C43.6559 55.0502 43.795 55.6187 44.4051 55.4657C45.2267 55.2596 45.7263 54.682 45.9473 53.9075C46.1177 53.3098 45.5509 53.0809 45.246 52.7414C44.6045 53.4165 43.9927 54.0604 43.3248 54.7634ZM24.3596 52.9246C23.3558 53.4548 23.4505 54.1609 23.984 55.2358C24.3669 56.0074 24.9321 56.124 25.6563 55.7072C25.2263 54.7843 24.7979 53.8652 24.3596 52.9246ZM49.7962 28.3728C49.7649 28.3189 49.7336 28.2648 49.7022 28.2109C49.5535 28.27 49.3773 28.2966 49.2609 28.3938C48.7452 28.8251 48.2361 29.2657 47.7502 29.7293C47.6401 29.8343 47.5641 30.0556 47.5883 30.205C47.7052 30.9288 47.8861 31.6428 47.9976 32.3673C48.1189 33.1562 48.6334 33.5019 49.4855 33.2658C49.2625 32.9219 49.057 32.5833 48.8305 32.2592C47.8818 30.9019 47.8392 31.4164 48.5986 29.8843C48.6269 29.8273 48.6492 29.7668 48.6684 29.7059C48.8537 29.1147 49.106 28.5755 49.7962 28.3728ZM48.7989 35.3861C48.8329 35.354 48.8669 35.3219 48.901 35.2898C48.8423 34.9652 48.8107 34.6322 48.7129 34.3197C48.6666 34.1716 48.5151 33.9885 48.3745 33.9484C47.6498 33.7419 47.3379 33.2527 47.2841 32.5418C47.261 32.236 47.2054 31.9326 47.1645 31.6281C47.0965 31.6276 47.0284 31.627 46.9603 31.6266C46.9213 32.2125 46.8531 32.7988 46.8598 33.3842C46.8619 33.5731 47.0155 33.8301 47.1786 33.9341C47.6716 34.2486 48.1434 34.5539 48.3877 35.1232C48.4407 35.2465 48.6575 35.3003 48.7989 35.3861ZM47.2304 41.3889C47.1953 41.4342 47.1601 41.4795 47.125 41.5248C47.3051 41.7262 47.4493 42.0362 47.6721 42.109C48.3801 42.3408 49.1173 42.4844 49.8782 42.6706C49.4892 41.0907 48.1424 40.1015 47.4795 40.7086C47.9212 40.9201 48.3637 41.1039 48.773 41.3436C48.9118 41.425 48.9668 41.6479 49.0601 41.8061C48.8759 41.8323 48.6729 41.9209 48.5113 41.8728C48.0748 41.7426 47.6561 41.5542 47.2304 41.3889ZM53.3368 31.4277C53.3454 31.4144 53.4914 31.2922 53.4785 31.1902C53.4147 30.6872 52.7164 30.1008 52.2181 30.1211C52.1239 30.1249 51.9594 30.2474 51.9564 30.3203C51.9436 30.6329 51.879 31.0036 52.0183 31.2495C52.2876 31.7249 52.4021 32.1858 52.2463 32.7196C52.5335 32.7752 52.7083 32.7603 52.6217 32.4309C52.5606 32.1986 52.4977 31.9662 52.4517 31.7308C52.3921 31.4248 52.1057 31.0252 52.5812 30.8791C52.737 30.831 53.018 31.1851 53.3368 31.4277ZM55.5319 30.0782C55.5098 29.3818 55.0123 28.8624 54.6068 28.4903C54.1965 28.1139 53.4622 28.0863 52.8699 27.9059C52.8503 27.9483 52.8306 27.9908 52.8111 28.0331C53.1877 28.2275 53.5523 28.4514 53.9443 28.608C54.3433 28.7675 54.6045 29.0156 54.6388 29.4389C54.6813 29.9645 54.9752 30.1329 55.5319 30.0782ZM28.5052 50.441C28.7944 49.1627 28.8058 48.6995 28.537 48.2755C28.3495 49.0072 27.9068 49.6872 28.5052 50.441ZM51.3963 32.5122C51.6635 32.0203 51.3885 31.3947 50.8307 31.215C51.0483 31.714 51.2223 32.113 51.3963 32.5122Z" fill="white"/>
<path d="M50.8307 31.215C51.0483 31.714 51.2223 32.113 51.3963 32.5122L50.8307 31.215Z" fill="white"/>
<path d="M33.7859 18.9886C32.9654 18.8386 32.1289 18.7459 31.3286 18.524C30.3828 18.2617 29.4644 18.2632 28.5247 18.492C28.1978 18.5717 27.8602 18.6151 27.525 18.6529C27.192 18.6903 26.9036 18.5987 26.8058 18.2387C26.712 17.8935 26.871 17.6369 27.1796 17.4922C27.9795 17.1172 28.7749 16.7278 29.5975 16.4086C29.8894 16.2953 30.2591 16.3272 30.5853 16.3637C31.8443 16.5049 33.0986 16.6876 34.3575 16.8287C34.9908 16.8997 35.4069 17.2708 35.4172 17.8514C35.4273 18.4229 35.0194 18.8377 34.378 18.8936C34.1865 18.9103 33.9923 18.8962 33.7993 18.8962C33.7948 18.927 33.7904 18.9578 33.7859 18.9886Z" fill="white"/>
<path d="M29.6297 20.0795C30.7569 20.2374 31.8847 20.391 33.0108 20.5565C33.2677 20.5943 33.5735 20.6643 33.5173 21.0056C33.4543 21.3873 33.1387 21.3144 32.8629 21.2591C32.7056 21.2276 32.5445 21.211 32.3903 21.1688C31.9659 21.0527 31.6783 21.0576 31.381 21.5289C30.8557 22.3614 29.5449 22.1665 29.1459 21.2366C29.0244 20.9537 28.8876 20.8625 28.5917 20.8426C28.4371 20.8322 28.2948 20.6409 28.1469 20.5313C28.2997 20.4072 28.4389 20.2051 28.6084 20.1755C28.9358 20.1186 29.2803 20.1589 29.6178 20.1589C29.6216 20.1324 29.6257 20.106 29.6297 20.0795Z" fill="white"/>
<path d="M22.492 17.5025C22.407 17.6252 22.3624 17.7641 22.2793 17.7926C22.1466 17.8383 21.96 17.8602 21.8502 17.7979C21.7663 17.7504 21.6926 17.4994 21.741 17.4387C21.9501 17.1761 22.1705 16.8476 22.4579 16.7499C22.6285 16.692 23.0273 16.9656 23.152 17.1859C23.3282 17.4978 23.4189 17.8993 23.4129 18.2604C23.4055 18.7013 23.0561 19.1185 23.3212 19.5985C23.3552 19.6599 23.2222 19.8979 23.1324 19.9206C23.0083 19.952 22.7993 19.9015 22.7184 19.8078C22.4232 19.4653 22.3901 19.0683 22.5564 18.6427C22.6883 18.3048 22.8583 17.9548 22.492 17.5025Z" fill="white"/>
<path d="M34.0687 29.5388C33.763 29.5522 33.451 29.6069 33.1541 29.5623C32.9956 29.5385 32.8631 29.3432 32.7188 29.2253C32.8481 29.1073 32.972 28.895 33.1076 28.8873C33.7483 28.8508 34.3941 28.8443 35.0337 28.8893C35.1831 28.8998 35.3154 29.1527 35.4556 29.2941C35.2824 29.3914 35.1165 29.5508 34.9345 29.5717C34.6523 29.6041 34.359 29.5421 34.0705 29.5201C34.0698 29.5263 34.0692 29.5325 34.0687 29.5388Z" fill="white"/>
<path d="M42.0701 17.6818C41.7665 17.8839 41.5859 18.0975 41.4194 18.0871C41.2703 18.0778 41.0047 17.7961 41.0274 17.6808C41.0612 17.5089 41.2861 17.2926 41.4627 17.257C41.5925 17.2307 41.7751 17.4638 42.0701 17.6818Z" fill="white"/>
</svg>
