<svg width="85" height="35" viewBox="0 0 147 121" fill="none" xmlns="http://www.w3.org/2000/svg">
<g clip-path="url(#clip0_28_30514)">
<path d="M36.3499 105.26V99.2599C36.3849 98.7553 36.3119 98.249 36.1359 97.7748C35.9599 97.3006 35.6848 96.8694 35.329 96.5098C34.9733 96.1502 34.545 95.8706 34.0727 95.6896C33.6004 95.5086 33.0949 95.4302 32.5899 95.4599C31.929 95.4165 31.2685 95.5514 30.6775 95.8505C30.0865 96.1495 29.5866 96.6017 29.2299 97.1599C28.9049 96.6184 28.4397 96.1747 27.8836 95.8755C27.3274 95.5763 26.7009 95.4327 26.0699 95.4599C25.52 95.4321 24.9723 95.5485 24.4811 95.7975C23.99 96.0466 23.5725 96.4197 23.2699 96.8799V95.6999H21.1899V105.26H23.2899V99.9999C23.2453 99.6729 23.2734 99.3402 23.3722 99.0254C23.4711 98.7106 23.6383 98.4215 23.8619 98.1789C24.0854 97.9362 24.3598 97.7459 24.6655 97.6216C24.9711 97.4973 25.3005 97.4421 25.6299 97.4599C27.0099 97.4599 27.7099 98.3599 27.7099 99.9799V105.3H29.8099V99.9999C29.7671 99.6733 29.7965 99.3413 29.896 99.0273C29.9956 98.7133 30.1628 98.425 30.386 98.1827C30.6092 97.9405 30.8829 97.7502 31.1876 97.6253C31.4924 97.5003 31.8209 97.4439 32.1499 97.4599C33.5699 97.4599 34.2499 98.3599 34.2499 99.9799V105.3L36.3499 105.26ZM67.4199 95.6999H63.9999V92.7999H61.8999V95.6999H59.9999V97.5999H61.9399V102C61.9399 104.22 62.7999 105.54 65.2599 105.54C66.179 105.543 67.0802 105.286 67.8599 104.8L67.2599 103.02C66.7021 103.353 66.0691 103.538 65.4199 103.56C64.4199 103.56 64.0399 102.92 64.0399 101.96V97.5999H67.4399L67.4199 95.6999ZM85.1599 95.4599C84.6528 95.4449 84.151 95.5671 83.7075 95.8135C83.264 96.0599 82.8952 96.4214 82.6399 96.8599V95.6999H80.5799V105.26H82.6599V99.8999C82.6599 98.3199 83.3399 97.4399 84.6599 97.4399C85.1048 97.4338 85.5466 97.5153 85.9599 97.6799L86.5999 95.6799C86.1249 95.5099 85.6244 95.422 85.1199 95.4199L85.1599 95.4599ZM58.3399 96.4599C57.1626 95.7598 55.8089 95.4127 54.4399 95.4599C52.0199 95.4599 50.4399 96.6199 50.4399 98.5199C50.4399 100.08 51.5999 101.04 53.7399 101.34L54.7399 101.48C55.8799 101.64 56.4199 101.94 56.4199 102.48C56.4199 103.22 55.6599 103.64 54.2399 103.64C53.0977 103.673 51.9776 103.321 51.0599 102.64L50.0599 104.26C51.2716 105.106 52.7228 105.541 54.1999 105.5C56.9599 105.5 58.5599 104.2 58.5599 102.38C58.5599 100.56 57.2999 99.8199 55.2199 99.5199L54.2199 99.3799C53.3199 99.2599 52.5999 99.0799 52.5999 98.4399C52.5999 97.7999 53.2799 97.3199 54.4199 97.3199C55.4736 97.3321 56.5065 97.6144 57.4199 98.1399L58.3399 96.4599ZM114.05 95.4599C113.543 95.4449 113.041 95.5671 112.598 95.8135C112.154 96.0599 111.785 96.4214 111.53 96.8599V95.6999H109.47V105.26H111.55V99.8999C111.55 98.3199 112.23 97.4399 113.55 97.4399C113.995 97.4338 114.437 97.5153 114.85 97.6799L115.49 95.6799C115.015 95.5099 114.514 95.422 114.01 95.4199L114.05 95.4599ZM87.2499 100.46C87.2252 101.132 87.341 101.801 87.5899 102.426C87.8388 103.05 88.2153 103.616 88.6953 104.087C89.1754 104.557 89.7484 104.922 90.3777 105.159C91.007 105.395 91.6787 105.498 92.3499 105.46C93.5988 105.523 94.8262 105.117 95.7899 104.32L94.7899 102.64C94.0709 103.188 93.1941 103.49 92.2899 103.5C91.5211 103.438 90.8038 103.088 90.2809 102.521C89.7579 101.954 89.4675 101.211 89.4675 100.44C89.4675 99.6685 89.7579 98.9254 90.2809 98.3584C90.8038 97.7914 91.5211 97.4421 92.2899 97.3799C93.1941 97.3899 94.0709 97.6915 94.7899 98.2399L95.7899 96.5599C94.8262 95.7631 93.5988 95.3563 92.3499 95.4199C91.6787 95.3818 91.007 95.4843 90.3777 95.7208C89.7484 95.9573 89.1754 96.3225 88.6953 96.7932C88.2153 97.2638 87.8388 97.8295 87.5899 98.454C87.341 99.0785 87.2252 99.748 87.2499 100.42V100.46ZM106.73 100.46V95.6999H104.65V96.8599C104.297 96.4054 103.84 96.0414 103.319 95.798C102.797 95.5545 102.225 95.4386 101.65 95.4599C100.324 95.4599 99.0521 95.9866 98.1144 96.9243C97.1767 97.862 96.6499 99.1338 96.6499 100.46C96.6499 101.786 97.1767 103.058 98.1144 103.995C99.0521 104.933 100.324 105.46 101.65 105.46C102.225 105.481 102.797 105.365 103.319 105.122C103.84 104.878 104.297 104.514 104.65 104.06V105.22H106.73V100.46ZM98.9899 100.46C99.0231 99.8971 99.2201 99.3564 99.5567 98.9042C99.8933 98.452 100.355 98.1082 100.884 97.915C101.414 97.7218 101.988 97.6876 102.537 97.8168C103.086 97.946 103.585 98.2328 103.973 98.6419C104.36 99.0511 104.62 99.5647 104.72 100.12C104.819 100.674 104.754 101.246 104.533 101.765C104.311 102.283 103.943 102.726 103.474 103.037C103.004 103.349 102.454 103.517 101.89 103.52C101.494 103.525 101.101 103.448 100.737 103.294C100.372 103.14 100.043 102.912 99.7705 102.624C99.4981 102.337 99.2882 101.996 99.1538 101.624C99.0195 101.251 98.9637 100.855 98.9899 100.46V100.46ZM73.8899 95.4599C72.5639 95.4784 71.2995 96.023 70.3749 96.9738C69.4504 97.9246 68.9414 99.2038 68.9599 100.53C68.9785 101.856 69.5231 103.12 70.4739 104.045C71.4247 104.969 72.7039 105.478 74.0299 105.46C75.4687 105.534 76.8835 105.07 77.9999 104.16L76.9999 102.62C76.2103 103.253 75.232 103.605 74.2199 103.62C73.5324 103.679 72.8489 103.468 72.3148 103.031C71.7807 102.594 71.4381 101.966 71.3599 101.28H78.4599C78.4599 101.02 78.4599 100.76 78.4599 100.48C78.4599 97.4799 76.5999 95.4799 73.9199 95.4799L73.8899 95.4599ZM73.8899 97.3199C74.2012 97.3132 74.5107 97.368 74.8008 97.481C75.0909 97.594 75.3558 97.7631 75.5806 97.9785C75.8053 98.194 75.9854 98.4516 76.1105 98.7366C76.2357 99.0217 76.3034 99.3286 76.3099 99.6399H71.3099C71.3462 98.9979 71.6323 98.3957 72.107 97.9621C72.5817 97.5285 73.2074 97.2979 73.8499 97.3199H73.8899ZM126 100.48V91.8599H124V96.8599C123.647 96.4054 123.19 96.0414 122.669 95.798C122.147 95.5545 121.575 95.4386 121 95.4599C119.674 95.4599 118.402 95.9866 117.464 96.9243C116.527 97.862 116 99.1338 116 100.46C116 101.786 116.527 103.058 117.464 103.995C118.402 104.933 119.674 105.46 121 105.46C121.575 105.481 122.147 105.365 122.669 105.122C123.19 104.878 123.647 104.514 124 104.06V105.22H126V100.48ZM129.47 103.87C129.6 103.868 129.729 103.892 129.85 103.94C129.965 103.987 130.07 104.055 130.16 104.14C130.248 104.226 130.319 104.328 130.37 104.44C130.421 104.557 130.447 104.683 130.447 104.81C130.447 104.937 130.421 105.063 130.37 105.18C130.319 105.292 130.248 105.394 130.16 105.48C130.07 105.565 129.965 105.633 129.85 105.68C129.73 105.733 129.601 105.76 129.47 105.76C129.28 105.758 129.095 105.703 128.936 105.6C128.776 105.498 128.65 105.352 128.57 105.18C128.52 105.063 128.494 104.937 128.494 104.81C128.494 104.683 128.52 104.557 128.57 104.44C128.621 104.328 128.692 104.226 128.78 104.14C128.87 104.055 128.975 103.987 129.09 103.94C129.22 103.888 129.36 103.864 129.5 103.87H129.47ZM129.47 105.56C129.57 105.56 129.669 105.54 129.76 105.5C129.846 105.461 129.924 105.407 129.99 105.34C130.115 105.203 130.184 105.025 130.184 104.84C130.184 104.655 130.115 104.476 129.99 104.34C129.924 104.272 129.846 104.218 129.76 104.18C129.668 104.14 129.57 104.12 129.47 104.12C129.37 104.12 129.272 104.141 129.18 104.18C129.09 104.217 129.009 104.271 128.94 104.34C128.815 104.476 128.745 104.655 128.745 104.84C128.745 105.025 128.815 105.203 128.94 105.34C129.009 105.408 129.09 105.463 129.18 105.5C129.281 105.543 129.39 105.564 129.5 105.56H129.47ZM129.53 104.37C129.623 104.365 129.715 104.394 129.79 104.45C129.821 104.475 129.845 104.507 129.86 104.544C129.876 104.581 129.883 104.62 129.88 104.66C129.881 104.693 129.876 104.726 129.864 104.757C129.852 104.788 129.833 104.816 129.81 104.84C129.752 104.893 129.678 104.924 129.6 104.93L129.89 105.26H129.66L129.39 104.93H129.3V105.26H129.11V104.38L129.53 104.37ZM129.31 104.54V104.78H129.53C129.569 104.792 129.611 104.792 129.65 104.78C129.657 104.766 129.661 104.75 129.661 104.735C129.661 104.719 129.657 104.704 129.65 104.69C129.657 104.676 129.661 104.66 129.661 104.645C129.661 104.629 129.657 104.614 129.65 104.6C129.611 104.588 129.569 104.588 129.53 104.6L129.31 104.54ZM118.31 100.48C118.343 99.9171 118.54 99.3764 118.877 98.9242C119.213 98.472 119.675 98.1282 120.204 97.935C120.734 97.7417 121.308 97.7076 121.857 97.8368C122.406 97.966 122.905 98.2528 123.293 98.6619C123.68 99.0711 123.94 99.5847 124.04 100.14C124.139 100.694 124.074 101.266 123.853 101.785C123.631 102.303 123.263 102.746 122.794 103.057C122.324 103.369 121.774 103.537 121.21 103.54C120.814 103.545 120.421 103.468 120.057 103.314C119.692 103.16 119.363 102.932 119.09 102.644C118.818 102.357 118.608 102.016 118.474 101.644C118.339 101.271 118.284 100.875 118.31 100.48V100.48ZM48.0799 100.48V95.6999H45.9999V96.8599C45.6467 96.4054 45.1905 96.0414 44.6688 95.798C44.1472 95.5545 43.5752 95.4386 42.9999 95.4599C41.6739 95.4599 40.4021 95.9866 39.4644 96.9243C38.5267 97.862 37.9999 99.1338 37.9999 100.46C37.9999 101.786 38.5267 103.058 39.4644 103.995C40.4021 104.933 41.6739 105.46 42.9999 105.46C43.5752 105.481 44.1472 105.365 44.6688 105.122C45.1905 104.878 45.6467 104.514 45.9999 104.06V105.22H48.0799V100.48ZM40.3399 100.48C40.3731 99.9171 40.5701 99.3764 40.9067 98.9242C41.2433 98.472 41.7048 98.1282 42.2344 97.935C42.7639 97.7417 43.3384 97.7076 43.8872 97.8368C44.4359 97.966 44.9348 98.2528 45.3226 98.6619C45.7103 99.0711 45.97 99.5847 46.0695 100.14C46.1691 100.694 46.1042 101.266 45.8828 101.785C45.6615 102.303 45.2933 102.746 44.8238 103.057C44.3542 103.369 43.8036 103.537 43.2399 103.54C42.8423 103.548 42.4474 103.473 42.0803 103.32C41.7132 103.167 41.3818 102.939 41.1073 102.652C40.8327 102.364 40.621 102.022 40.4854 101.649C40.3499 101.275 40.2935 100.877 40.3199 100.48H40.3399Z" fill="black"/>
<path d="M89.1499 22.8501H57.6499V79.4601H89.1499V22.8501Z" fill="#8A8A8A"/>
<path d="M59.65 51.1603C59.6442 45.7076 60.8791 40.325 63.2614 35.4202C65.6436 30.5154 69.1107 26.2169 73.4 22.8503C68.0891 18.6765 61.7111 16.0811 54.9949 15.3606C48.2788 14.6402 41.4954 15.8238 35.4201 18.7762C29.3448 21.7286 24.2227 26.3307 20.6392 32.0564C17.0556 37.7822 15.1553 44.4006 15.1553 51.1553C15.1553 57.91 17.0556 64.5284 20.6392 70.2542C24.2227 75.9799 29.3448 80.582 35.4201 83.5344C41.4954 86.4868 48.2788 87.6704 54.9949 86.9499C61.7111 86.2295 68.0891 83.6341 73.4 79.4603C69.112 76.0947 65.6458 71.7979 63.2636 66.8949C60.8814 61.9919 59.6457 56.6113 59.65 51.1603V51.1603Z" fill="black"/>
<path d="M131.65 51.1601C131.65 57.9153 129.749 64.5341 126.165 70.2601C122.581 75.986 117.458 80.588 111.382 83.54C105.306 86.4919 98.5216 87.6748 91.805 86.9533C85.0884 86.2318 78.7104 83.6351 73.3999 79.4601C77.6862 76.0915 81.1515 71.7935 83.5343 66.8902C85.9171 61.987 87.1552 56.6066 87.1552 51.1551C87.1552 45.7035 85.9171 40.3231 83.5343 35.4199C81.1515 30.5167 77.6862 26.2186 73.3999 22.8501C78.7104 18.675 85.0884 16.0783 91.805 15.3568C98.5216 14.6353 105.306 15.8182 111.382 18.7702C117.458 21.7221 122.581 26.3241 126.165 32.0501C129.749 37.776 131.65 44.3949 131.65 51.1501V51.1601Z" fill="#666666"/>
<path d="M128.21 73.4601V72.3001H128.68V72.0601H127.49V72.3001H128V73.4601H128.21ZM130.52 73.4601V72.0601H130.16L129.74 73.0601L129.32 72.0601H129V73.4601H129.26V72.4101L129.65 73.3201H129.92L130.31 72.4101V73.4701L130.52 73.4601Z" fill="#F79E1B"/>
</g>
<defs>
<clipPath id="clip0_28_30514">
<rect width="146.8" height="120.41" fill="white"/>
</clipPath>
</defs>
</svg>
