<svg width="85" height="35" viewBox="0 0 178 178" fill="none" xmlns="http://www.w3.org/2000/svg">
<g clip-path="url(#clip0_28_30565)">
<path d="M142.7 146.35H142.48V146.94H142.37V146.35H142.15V146.24H142.71L142.7 146.35ZM143.56 146.94H143.45V146.37L143.25 146.87H143.13L142.93 146.37V146.94H142.82V146.24H142.99L143.19 146.74L143.39 146.24H143.56V146.94ZM38.2299 146.94H36.6999V129.44H38.2299V146.94ZM49.8598 129.44C51.1982 129.42 52.5302 129.626 53.7998 130.05C54.9112 130.417 55.9332 131.013 56.7998 131.8C57.6252 132.57 58.2706 133.512 58.6898 134.56C59.5728 136.899 59.5728 139.481 58.6898 141.82C58.2709 142.868 57.6255 143.81 56.7998 144.58C55.9332 145.367 54.9112 145.963 53.7998 146.33C52.5302 146.754 51.1982 146.96 49.8598 146.94H43.4698V129.44H49.8598ZM44.9998 130.89V145.49H49.8598C51.0079 145.51 52.151 145.335 53.2398 144.97C54.1544 144.659 54.9929 144.158 55.6999 143.5C56.371 142.858 56.8873 142.071 57.2098 141.2C57.8874 139.257 57.8874 137.143 57.2098 135.2C56.8868 134.326 56.3706 133.537 55.6999 132.89C54.9947 132.229 54.1557 131.728 53.2398 131.42C52.153 131.062 51.0138 130.89 49.8698 130.91L44.9998 130.89ZM77.9998 129.24C78.7338 129.238 79.4654 129.322 80.1798 129.49C80.873 129.649 81.5446 129.89 82.1798 130.21C82.7792 130.514 83.337 130.894 83.8398 131.34C84.3322 131.777 84.7598 132.282 85.1098 132.84L83.8398 133.69C83.5396 133.231 83.1798 132.814 82.7698 132.45C82.3574 132.081 81.9005 131.766 81.4099 131.51C80.9026 131.249 80.3652 131.051 79.8098 130.92C79.2302 130.78 78.6361 130.71 78.0399 130.71C77.0442 130.702 76.0562 130.885 75.1299 131.25C74.2547 131.593 73.4586 132.11 72.7899 132.77C72.1172 133.444 71.5868 134.247 71.2299 135.13C70.4703 137.092 70.4703 139.268 71.2299 141.23C71.5865 142.113 72.117 142.916 72.7899 143.59C73.4586 144.25 74.2547 144.767 75.1299 145.11C76.0562 145.475 77.0442 145.658 78.0399 145.65C78.6323 145.652 79.2229 145.585 79.7998 145.45C80.9125 145.206 81.9448 144.683 82.7998 143.93C83.2122 143.564 83.5723 143.144 83.8698 142.68L85.1198 143.59C84.7563 144.135 84.3226 144.629 83.8298 145.06C83.3281 145.497 82.7739 145.87 82.1798 146.17C81.5643 146.484 80.9129 146.723 80.2398 146.88C78.3373 147.313 76.3485 147.167 74.5298 146.46C73.4705 146.041 72.5051 145.416 71.6898 144.62C70.8783 143.814 70.2387 142.851 69.8098 141.79C68.9023 139.465 68.9023 136.885 69.8098 134.56C70.2387 133.499 70.8783 132.537 71.6898 131.73C72.5051 130.934 73.4705 130.309 74.5298 129.89C75.6478 129.452 76.8391 129.231 78.0399 129.24H77.9998ZM90.2599 137.24C90.4838 136.869 90.76 136.532 91.0798 136.24C91.3796 135.965 91.7161 135.733 92.0798 135.55C92.4459 135.372 92.832 135.237 93.2299 135.15C93.6241 135.064 94.0263 135.02 94.4298 135.02C95.1106 135.013 95.7874 135.125 96.4298 135.35C97.0115 135.554 97.5457 135.873 97.9998 136.29C98.4386 136.707 98.78 137.216 98.9998 137.78C99.25 138.417 99.3723 139.096 99.3598 139.78V146.99H97.9298V140.22C97.9375 139.676 97.853 139.135 97.6798 138.62C97.5274 138.166 97.2745 137.752 96.9398 137.41C96.6041 137.072 96.1977 136.812 95.7498 136.65C95.2365 136.468 94.6945 136.38 94.1498 136.39C93.6235 136.386 93.1011 136.481 92.6098 136.67C92.1434 136.85 91.7182 137.122 91.3598 137.47C90.9997 137.823 90.7141 138.245 90.5198 138.71C90.3105 139.21 90.205 139.748 90.2098 140.29V146.99H88.7899V128.99H90.2098L90.2599 137.24ZM108.7 135.02C109.449 135.013 110.192 135.163 110.88 135.46C111.54 135.748 112.132 136.17 112.62 136.7C113.124 137.254 113.518 137.899 113.78 138.6C114.071 139.374 114.22 140.193 114.22 141.02C114.22 141.13 114.22 141.23 114.22 141.33C114.22 141.43 114.22 141.52 114.22 141.61H104.36C104.398 142.24 104.554 142.857 104.82 143.43C105.06 143.945 105.4 144.407 105.82 144.79C106.23 145.16 106.709 145.445 107.23 145.63C107.772 145.824 108.344 145.923 108.92 145.92C109.68 145.933 110.435 145.779 111.13 145.47C111.784 145.166 112.379 144.749 112.89 144.24L113.65 145.24C113.304 145.593 112.922 145.908 112.51 146.18C112.136 146.422 111.737 146.624 111.32 146.78C110.922 146.927 110.51 147.031 110.09 147.09C109.672 147.149 109.251 147.179 108.83 147.18C108.019 147.19 107.214 147.04 106.46 146.74C105.758 146.459 105.122 146.037 104.59 145.5C104.057 144.953 103.642 144.303 103.37 143.59C103.069 142.805 102.92 141.97 102.93 141.13C102.92 140.296 103.07 139.468 103.37 138.69C103.632 137.964 104.037 137.298 104.56 136.73C105.084 136.188 105.714 135.76 106.41 135.47C107.146 135.153 107.939 134.99 108.74 134.99L108.7 135.02ZM108.7 136.28C108.138 136.275 107.581 136.38 107.06 136.59C106.573 136.787 106.128 137.076 105.75 137.44C105.368 137.811 105.056 138.248 104.83 138.73C104.585 139.25 104.43 139.808 104.37 140.38H112.78C112.739 139.804 112.6 139.239 112.37 138.71C112.16 138.229 111.861 137.791 111.49 137.42C111.123 137.055 110.688 136.767 110.209 136.571C109.73 136.376 109.217 136.277 108.7 136.28V136.28ZM122.94 135.02C123.773 135.013 124.599 135.172 125.37 135.49C126.102 135.792 126.755 136.257 127.28 136.85L126.36 137.85C125.916 137.402 125.394 137.039 124.82 136.78C124.217 136.52 123.566 136.39 122.91 136.4C122.295 136.397 121.686 136.519 121.12 136.76C120.578 136.994 120.088 137.334 119.68 137.76C119.249 138.187 118.909 138.698 118.68 139.26C118.221 140.482 118.221 141.828 118.68 143.05C118.892 143.603 119.214 144.106 119.627 144.531C120.039 144.955 120.534 145.292 121.08 145.52C121.646 145.761 122.255 145.884 122.87 145.88C123.534 145.887 124.193 145.751 124.8 145.48C125.378 145.221 125.906 144.863 126.36 144.42L127.25 145.42C126.722 146.01 126.07 146.474 125.34 146.78C124.573 147.098 123.75 147.257 122.92 147.25C122.087 147.26 121.261 147.104 120.49 146.79C119.776 146.5 119.128 146.067 118.587 145.519C118.045 144.971 117.621 144.318 117.34 143.6C116.749 142.048 116.749 140.332 117.34 138.78C117.619 138.06 118.043 137.405 118.585 136.855C119.126 136.305 119.775 135.871 120.49 135.58C121.264 135.216 122.105 135.015 122.96 134.99L122.94 135.02ZM132.07 140.17H133.98L138.98 135.17H140.78L135.18 140.72L140.88 146.93H139.07L134.07 141.42H132.16V146.93H130.66V128.93H132.08L132.07 140.17ZM51.4998 120.45V114.45C51.5348 113.945 51.4619 113.439 51.2858 112.965C51.1098 112.491 50.8347 112.06 50.4789 111.7C50.1232 111.34 49.6949 111.061 49.2226 110.88C48.7503 110.699 48.2448 110.62 47.7398 110.65C47.0789 110.607 46.4184 110.742 45.8274 111.041C45.2364 111.34 44.7365 111.792 44.3799 112.35C44.0548 111.809 43.5897 111.365 43.0335 111.066C42.4774 110.767 41.8508 110.623 41.2198 110.65C40.6699 110.622 40.1221 110.739 39.631 110.988C39.1399 111.237 38.7224 111.61 38.4198 112.07V110.89H36.3398V120.45H38.4398V115.15C38.3952 114.823 38.4233 114.49 38.5222 114.176C38.621 113.861 38.7882 113.572 39.0118 113.329C39.2353 113.086 39.5098 112.896 39.8154 112.772C40.121 112.647 40.4504 112.592 40.7798 112.61C42.1598 112.61 42.8598 113.51 42.8598 115.13V120.45H44.9598V115.15C44.917 114.823 44.9464 114.491 45.0459 114.177C45.1455 113.863 45.3127 113.575 45.5359 113.333C45.7591 113.091 46.0328 112.9 46.3376 112.775C46.6423 112.65 46.9708 112.594 47.2998 112.61C48.7198 112.61 49.3998 113.51 49.3998 115.13V120.45H51.4998ZM82.5598 110.86H79.1599V107.96H77.0598V110.86H75.1198V112.73H77.0598V117.09C77.0598 119.31 77.9199 120.63 80.3799 120.63C81.2989 120.633 82.2002 120.377 82.9799 119.89L82.3799 118.11C81.8356 118.468 81.2093 118.681 80.5598 118.73C79.5598 118.73 79.1798 118.09 79.1798 117.13V112.73H82.5598V110.86ZM100.3 110.62C99.7927 110.605 99.291 110.727 98.8474 110.974C98.4039 111.22 98.0351 111.582 97.7798 112.02V110.86H95.7198V120.42H97.7998V115.06C97.7998 113.48 98.4798 112.6 99.7998 112.6C100.245 112.594 100.686 112.675 101.1 112.84L101.74 110.84C101.265 110.67 100.764 110.582 100.26 110.58L100.3 110.62ZM73.4799 111.62C72.3025 110.92 70.9488 110.573 69.5798 110.62C67.1598 110.62 65.5798 111.78 65.5798 113.68C65.5798 115.24 66.7399 116.2 68.8799 116.5L69.8799 116.64C71.0199 116.8 71.5598 117.1 71.5598 117.64C71.5598 118.38 70.7999 118.8 69.3799 118.8C68.2377 118.833 67.1176 118.481 66.1999 117.8L65.1999 119.42C66.4115 120.266 67.8627 120.701 69.3398 120.66C72.0998 120.66 73.6999 119.36 73.6999 117.54C73.6999 115.72 72.4398 114.98 70.3598 114.68L69.3598 114.54C68.4598 114.42 67.7398 114.24 67.7398 113.6C67.7398 112.96 68.4198 112.48 69.5598 112.48C70.6135 112.492 71.6464 112.775 72.5598 113.3L73.4799 111.62ZM129.19 110.62C128.683 110.605 128.181 110.727 127.737 110.974C127.294 111.22 126.925 111.582 126.67 112.02V110.86H124.61V120.42H126.69V115.06C126.69 113.48 127.37 112.6 128.69 112.6C129.135 112.594 129.576 112.675 129.99 112.84L130.63 110.84C130.155 110.67 129.654 110.582 129.15 110.58L129.19 110.62ZM102.39 115.62C102.365 116.292 102.481 116.961 102.73 117.586C102.979 118.21 103.355 118.776 103.835 119.247C104.315 119.717 104.888 120.083 105.518 120.319C106.147 120.556 106.819 120.658 107.49 120.62C108.739 120.684 109.966 120.277 110.93 119.48L109.93 117.8C109.211 118.348 108.334 118.65 107.43 118.66C106.661 118.598 105.944 118.248 105.421 117.681C104.898 117.114 104.607 116.371 104.607 115.6C104.607 114.829 104.898 114.086 105.421 113.519C105.944 112.952 106.661 112.602 107.43 112.54C108.334 112.55 109.211 112.852 109.93 113.4L110.93 111.72C109.966 110.923 108.739 110.516 107.49 110.58C106.819 110.542 106.147 110.644 105.518 110.881C104.888 111.117 104.315 111.483 103.835 111.953C103.355 112.424 102.979 112.99 102.73 113.614C102.481 114.239 102.365 114.908 102.39 115.58V115.62ZM121.87 115.62V110.84H119.79V112C119.437 111.545 118.98 111.182 118.459 110.938C117.937 110.695 117.365 110.579 116.79 110.6C115.464 110.6 114.192 111.127 113.254 112.064C112.317 113.002 111.79 114.274 111.79 115.6C111.79 116.926 112.317 118.198 113.254 119.136C114.192 120.073 115.464 120.6 116.79 120.6C117.365 120.621 117.937 120.505 118.459 120.262C118.98 120.019 119.437 119.655 119.79 119.2V120.36H121.87V115.62ZM114.13 115.62C114.163 115.057 114.36 114.517 114.697 114.064C115.033 113.612 115.495 113.268 116.024 113.075C116.554 112.882 117.128 112.848 117.677 112.977C118.226 113.106 118.725 113.393 119.112 113.802C119.5 114.211 119.76 114.725 119.859 115.28C119.959 115.835 119.894 116.406 119.673 116.925C119.451 117.443 119.083 117.886 118.614 118.198C118.144 118.509 117.594 118.677 117.03 118.68C116.634 118.685 116.241 118.608 115.876 118.454C115.512 118.3 115.183 118.072 114.91 117.784C114.638 117.497 114.428 117.156 114.294 116.784C114.159 116.411 114.104 116.015 114.13 115.62V115.62ZM89.0298 110.62C87.7038 110.639 86.4394 111.183 85.5148 112.134C84.5902 113.085 84.0813 114.364 84.0999 115.69C84.1184 117.016 84.663 118.28 85.6138 119.205C86.5646 120.13 87.8437 120.639 89.1698 120.62C90.5968 120.67 91.9922 120.193 93.0898 119.28L92.0898 117.74C91.3002 118.373 90.3219 118.725 89.3098 118.74C88.6223 118.799 87.9388 118.588 87.4047 118.151C86.8706 117.714 86.528 117.086 86.4499 116.4H93.5598C93.5598 116.14 93.5598 115.88 93.5598 115.6C93.5598 112.6 91.6998 110.6 89.0198 110.6L89.0298 110.62ZM89.0298 112.48C89.3411 112.473 89.6506 112.528 89.9407 112.641C90.2308 112.754 90.4958 112.923 90.7205 113.139C90.9452 113.354 91.1253 113.612 91.2505 113.897C91.3756 114.182 91.4434 114.489 91.4499 114.8H86.4499C86.4861 114.158 86.7722 113.556 87.2469 113.122C87.7216 112.689 88.3473 112.458 88.9898 112.48H89.0298ZM141.2 115.64V107.02H139.12V112.02C138.767 111.566 138.31 111.202 137.789 110.958C137.267 110.715 136.695 110.599 136.12 110.62C134.794 110.62 133.522 111.147 132.584 112.084C131.647 113.022 131.12 114.294 131.12 115.62C131.12 116.946 131.647 118.218 132.584 119.156C133.522 120.093 134.794 120.62 136.12 120.62C136.695 120.641 137.267 120.525 137.789 120.282C138.31 120.038 138.767 119.675 139.12 119.22V120.38H141.2V115.64ZM133.46 115.64C133.493 115.077 133.69 114.537 134.027 114.084C134.363 113.632 134.825 113.288 135.354 113.095C135.884 112.902 136.458 112.868 137.007 112.997C137.556 113.126 138.055 113.413 138.442 113.822C138.83 114.231 139.09 114.745 139.189 115.3C139.289 115.855 139.224 116.426 139.003 116.945C138.781 117.463 138.413 117.906 137.944 118.217C137.474 118.529 136.924 118.697 136.36 118.7C135.964 118.705 135.571 118.628 135.206 118.474C134.842 118.32 134.513 118.092 134.24 117.804C133.968 117.517 133.758 117.176 133.624 116.804C133.489 116.431 133.434 116.035 133.46 115.64V115.64ZM63.2299 115.64V110.86H61.1498V112.02C60.7966 111.566 60.3403 111.202 59.8187 110.958C59.2971 110.715 58.7251 110.599 58.1498 110.62C56.8238 110.62 55.552 111.147 54.6143 112.084C53.6766 113.022 53.1498 114.294 53.1498 115.62C53.1498 116.946 53.6766 118.218 54.6143 119.156C55.552 120.093 56.8238 120.62 58.1498 120.62C58.7251 120.641 59.2971 120.525 59.8187 120.282C60.3403 120.038 60.7966 119.675 61.1498 119.22V120.38H63.2299V115.64ZM55.4898 115.64C55.523 115.077 55.72 114.537 56.0566 114.084C56.3932 113.632 56.8547 113.288 57.3843 113.095C57.9138 112.902 58.4883 112.868 59.037 112.997C59.5858 113.126 60.0847 113.413 60.4725 113.822C60.8602 114.231 61.1199 114.745 61.2194 115.3C61.319 115.855 61.2541 116.426 61.0327 116.945C60.8114 117.463 60.4432 117.906 59.9737 118.217C59.5041 118.529 58.9535 118.697 58.3898 118.7C57.9939 118.705 57.6012 118.628 57.2365 118.474C56.8717 118.32 56.5428 118.092 56.2704 117.804C55.998 117.517 55.7881 117.176 55.6537 116.804C55.5194 116.431 55.4636 116.035 55.4898 115.64V115.64ZM144.66 119.03C144.79 119.028 144.919 119.052 145.04 119.1C145.155 119.147 145.26 119.215 145.35 119.3C145.438 119.386 145.509 119.488 145.56 119.6C145.61 119.717 145.637 119.843 145.637 119.97C145.637 120.097 145.61 120.223 145.56 120.34C145.509 120.452 145.438 120.554 145.35 120.64C145.26 120.725 145.155 120.793 145.04 120.84C144.92 120.893 144.791 120.92 144.66 120.92C144.47 120.919 144.285 120.863 144.126 120.761C143.966 120.658 143.839 120.512 143.76 120.34C143.71 120.223 143.684 120.097 143.684 119.97C143.684 119.843 143.71 119.717 143.76 119.6C143.811 119.488 143.882 119.386 143.97 119.3C144.06 119.215 144.165 119.147 144.28 119.1C144.401 119.052 144.53 119.028 144.66 119.03V119.03ZM144.66 120.72C144.76 120.721 144.858 120.7 144.95 120.66C145.036 120.622 145.114 120.567 145.18 120.5C145.305 120.364 145.374 120.185 145.374 120C145.374 119.815 145.305 119.636 145.18 119.5C145.114 119.433 145.036 119.378 144.95 119.34C144.858 119.3 144.76 119.28 144.66 119.28C144.56 119.281 144.462 119.301 144.37 119.34C144.28 119.377 144.198 119.431 144.13 119.5C144.005 119.636 143.935 119.815 143.935 120C143.935 120.185 144.005 120.364 144.13 120.5C144.199 120.569 144.28 120.623 144.37 120.66C144.461 120.703 144.559 120.727 144.66 120.73V120.72ZM144.72 119.53C144.813 119.525 144.905 119.554 144.98 119.61C145.01 119.635 145.035 119.668 145.05 119.704C145.066 119.741 145.073 119.78 145.07 119.82C145.071 119.853 145.066 119.886 145.054 119.917C145.042 119.948 145.023 119.976 145 120C144.942 120.053 144.868 120.084 144.79 120.09L145.08 120.42H144.85L144.58 120.09H144.49V120.42H144.3V119.54L144.72 119.53ZM144.5 119.7V119.94H144.72C144.759 119.952 144.801 119.952 144.84 119.94C144.847 119.926 144.851 119.911 144.851 119.895C144.851 119.879 144.847 119.864 144.84 119.85C144.847 119.836 144.851 119.821 144.851 119.805C144.851 119.789 144.847 119.774 144.84 119.76C144.801 119.748 144.759 119.748 144.72 119.76L144.5 119.7Z" fill="black"/>
<path d="M104.31 38.0098H72.8101V94.6198H104.31V38.0098Z" fill="#8A8A8A"/>
<path d="M74.8102 66.32C74.8043 60.8672 76.0393 55.4847 78.4215 50.5799C80.8038 45.675 84.2708 41.3766 88.5602 38.01C83.2493 33.8362 76.8713 31.2408 70.1551 30.5203C63.439 29.7999 56.6556 30.9835 50.5803 33.9359C44.505 36.8883 39.3829 41.4903 35.7993 47.2161C32.2158 52.9418 30.3154 59.5603 30.3154 66.315C30.3154 73.0697 32.2158 79.6881 35.7993 85.4138C39.3829 91.1396 44.505 95.7417 50.5803 98.694C56.6556 101.646 63.439 102.83 70.1551 102.11C76.8713 101.389 83.2493 98.7938 88.5602 94.62C84.2722 91.2544 80.8059 86.9575 78.4237 82.0546C76.0416 77.1516 74.8059 71.771 74.8102 66.32V66.32Z" fill="black"/>
<path d="M143.37 88.63V87.47H143.84V87.23H142.65V87.47H143.12V88.63H143.37ZM145.68 88.63V87.23H145.32L144.9 88.23L144.48 87.23H144.11V88.63H144.37V87.58L144.76 88.49H145.03L145.42 87.58V88.64L145.68 88.63Z" fill="#F79E1B"/>
<path d="M146.81 66.3202C146.81 73.0754 144.909 79.6943 141.325 85.4202C137.741 91.1462 132.618 95.7481 126.542 98.7001C120.466 101.652 113.682 102.835 106.965 102.113C100.249 101.392 93.8705 98.7953 88.5601 94.6202C92.8463 91.2517 96.3116 86.9536 98.6944 82.0504C101.077 77.1471 102.315 71.7668 102.315 66.3152C102.315 60.8636 101.077 55.4833 98.6944 50.5801C96.3116 45.6768 92.8463 41.3788 88.5601 38.0102C93.8705 33.8351 100.249 31.2384 106.965 30.517C113.682 29.7955 120.466 30.9783 126.542 33.9303C132.618 36.8823 137.741 41.4843 141.325 47.2102C144.909 52.9362 146.81 59.555 146.81 66.3102V66.3202Z" fill="#666666"/>
</g>
<defs>
<clipPath id="clip0_28_30565">
<rect width="177.12" height="177.46" fill="white"/>
</clipPath>
</defs>
</svg>
