<svg width="69" height="64" viewBox="0 0 69 64" fill="none" xmlns="http://www.w3.org/2000/svg">
<path d="M20.4339 0C20.3159 2.85458 20.2569 5.92029 20.2569 9.19715C20.2569 12.474 20.3159 15.5397 20.4339 18.3943H14.4909V5.11797H5.94303V18.3943H0C0.134877 15.1174 0.202316 12.0517 0.202316 9.19715C0.202316 6.34257 0.134877 3.27685 0 0H20.4339Z" fill="#FF493D"/>
<path d="M33.9308 0.0253362C37.2859 0.0253362 39.6209 0.624966 40.936 1.82423C42.251 3.0066 42.9086 4.67881 42.9086 6.84085C42.9086 8.32726 42.6472 9.59409 42.1246 10.6413C41.6019 11.6717 40.6831 12.4824 39.368 13.0736C38.053 13.6479 36.2406 13.9351 33.9308 13.9351H28.6706V18.3943H22.4494C22.5842 15.1174 22.6517 12.0517 22.6517 9.19715C22.6517 6.34257 22.5842 3.27685 22.4494 0H28.6706V0.0253362H33.9308ZM32.1605 9.04513C33.5599 9.04513 34.6052 8.99446 35.2964 8.89311C36.0045 8.77487 36.4935 8.57218 36.7632 8.28504C37.0498 7.99789 37.1931 7.57561 37.1931 7.01821C37.1931 6.46081 37.0583 6.04698 36.7885 5.77672C36.5356 5.48957 36.0551 5.29533 35.347 5.19398C34.6558 5.09264 33.5936 5.04196 32.1605 5.04196H28.6706V9.04513H32.1605Z" fill="#FF493D"/>
<path d="M50.8917 13.7577C57.2984 13.7239 61.9432 13.631 64.8262 13.479C64.7082 14.1715 64.6324 14.8894 64.5986 15.6326C64.5818 16.3589 64.5733 17.2795 64.5733 18.3943H44.9234C45.0583 15.1174 45.1257 12.0517 45.1257 9.19715C45.1257 6.34257 45.0583 3.27685 44.9234 0H64.5733V4.58591H50.8917V7.01821C51.701 7.0351 52.898 7.04355 54.4828 7.04355C57.1635 7.04355 59.9369 6.99287 62.8031 6.89153V11.2494C59.9369 11.1481 57.1635 11.0974 54.4828 11.0974C52.898 11.0974 51.701 11.1058 50.8917 11.1227V13.7577Z" fill="#FF493D"/>
<path d="M23.6457 22.8028L25.6183 41.1971H19.0683L18.6636 28.0728L16.1347 41.1971H9.50885L6.92932 28.1742L6.54998 41.1971H0L1.97258 22.8028H10.571L12.7712 34.787L14.6932 22.8028H23.6457Z" fill="#FF493D"/>
<path d="M38.3584 27.2621C40.6682 27.2621 42.4806 27.5577 43.7957 28.1488C45.1107 28.7231 46.0296 29.5339 46.5522 30.5812C47.0749 31.6115 47.3362 32.8699 47.3362 34.3563C47.3362 36.5183 46.6787 38.199 45.3636 39.3983C44.0486 40.5806 41.7135 41.1718 38.3584 41.1718H33.8569V41.1971H27.6357C27.7706 37.9203 27.838 34.8546 27.838 32C27.838 29.1454 27.7706 26.0797 27.6357 22.8028H33.8569V27.2621H38.3584ZM37.3468 36.1552C38.527 36.1552 39.4122 36.1045 40.0022 36.0032C40.6092 35.8849 41.0307 35.6907 41.2667 35.4204C41.5028 35.1502 41.6208 34.7363 41.6208 34.1789C41.6208 33.6215 41.4943 33.1993 41.2414 32.9121C40.9885 32.625 40.5586 32.4307 39.9517 32.3294C39.3616 32.2111 38.4933 32.152 37.3468 32.152H33.8569V36.1552H37.3468Z" fill="#FF493D"/>
<path d="M55.0655 36.5606C61.4722 36.5268 66.117 36.4339 69 36.2819C68.882 36.9744 68.8061 37.6923 68.7724 38.4355C68.7555 39.1618 68.7471 40.0823 68.7471 41.1971H49.0972C49.232 37.9203 49.2995 34.8546 49.2995 32C49.2995 29.1454 49.232 26.0797 49.0972 22.8028H68.7471V27.3888H55.0655V29.8211C55.8748 29.8379 57.0718 29.8464 58.6566 29.8464C61.3373 29.8464 64.1107 29.7957 66.9768 29.6944V34.0523C64.1107 33.9509 61.3373 33.9002 58.6566 33.9002C57.0718 33.9002 55.8748 33.9087 55.0655 33.9256V36.5606Z" fill="#FF493D"/>
<path d="M11.4814 45.631C14.8365 45.631 17.1716 46.2307 18.4866 47.4299C19.8017 48.6123 20.4592 50.2845 20.4592 52.4465C20.4592 53.933 20.1979 55.1998 19.6752 56.247C19.1526 57.2774 18.2337 58.0881 16.9187 58.6793C15.6036 59.2536 13.7912 59.5408 11.4814 59.5408H6.22121V64H0C0.134877 60.7231 0.202316 57.6574 0.202316 54.8028C0.202316 51.9483 0.134877 48.8826 0 45.6057H6.22121V45.631H11.4814ZM9.71116 54.6508C11.1105 54.6508 12.1558 54.6002 12.8471 54.4988C13.5552 54.3806 14.0441 54.1779 14.3139 53.8907C14.6005 53.6036 14.7438 53.1813 14.7438 52.6239C14.7438 52.0665 14.6089 51.6527 14.3391 51.3824C14.0862 51.0953 13.6057 50.901 12.8976 50.7997C12.2064 50.6983 11.1442 50.6477 9.71116 50.6477H6.22121V54.6508H9.71116Z" fill="#FF493D"/>
<path d="M58.4317 64C58.1114 63.0372 57.6815 61.8295 57.142 60.3769H29.0746L27.8101 64H21.4625L28.5435 45.6057H57.8501L64.9817 64H58.4317ZM55.7005 56.4244C55.0598 54.6508 54.4023 51.8773 53.7279 50.1037L33.1209 49.4568C32.5308 50.9939 31.6626 53.3164 30.5161 56.4244H55.7005Z" fill="#FF493D"/>
</svg>
