<svg width="85" height="35" viewBox="0 0 269 128" fill="none" xmlns="http://www.w3.org/2000/svg">
<path d="M90.7998 73.7002H102.9C110.2 73.7002 115.7 79.3002 115.7 86.3002C115.7 93.3002 110.3 99.0002 102.9 99.0002H97.3998V109.1H90.7998V73.7002ZM97.3998 79.8002V92.8002H102.4C106.3 92.8002 109 89.9002 109 86.3002C109 82.7002 106.3 79.8002 102.4 79.8002H97.3998Z" fill="black"/>
<path d="M117.4 95.0002C117.4 85.6002 124.3 80.2002 131.5 80.2002C135.2 80.2002 138.6 81.8002 140.6 84.2002V80.8002H147.1V109.2H140.6V105.5C138.5 108.1 135.1 109.8 131.4 109.8C124.5 109.7 117.4 104.2 117.4 95.0002ZM140.9 94.9002C140.9 90.1002 137.3 86.2002 132.4 86.2002C127.6 86.2002 123.8 90.0002 123.8 94.9002C123.8 99.8002 127.5 103.7 132.4 103.7C137.3 103.7 140.9 99.8002 140.9 94.9002Z" fill="black"/>
<path d="M161.4 107.7L149.8 80.7002H156.8L164.7 99.8002L172.2 80.7002H179.1L162.2 122.2H155.6L161.4 107.7Z" fill="black"/>
<path d="M27.1999 28C26.9999 27.3 27.0999 26.6 27.1999 26.3C27.3999 25.2 28.0999 24.1 30.1999 24.1C32.0999 24.1 33.2999 25.3 33.2999 27.1C33.2999 27.7 33.2999 29.1 33.2999 29.1H41.4999V26.8C41.4999 19.6 34.9999 18.5 30.2999 18.5C24.3999 18.5 19.5999 20.4 18.6999 25.9C18.4999 27.4 18.3999 28.7 18.7999 30.4C20.1999 37.2 31.9999 39.1 33.6999 43.4C33.9999 44.2 33.8999 45.2 33.7999 45.8C33.4999 46.9 32.7999 48 30.5999 48C28.4999 48 27.2999 46.8 27.2999 45V41.8H18.3999V44.3C18.3999 51.7 24.1999 53.9 30.3999 53.9C36.3999 53.9 41.2999 51.9 42.0999 46.3C42.4999 43.4 42.1999 41.6 42.0999 40.9C40.6999 33.9 28.1999 31.9 27.1999 28ZM134.8 28.1C134.7 27.4 134.7 26.8 134.8 26.4C135 25.3 135.7 24.2 137.8 24.2C139.7 24.2 140.8 25.4 140.8 27.2C140.8 27.8 140.8 29.2 140.8 29.2H149V26.9C149 19.8 142.6 18.7 138 18.7C132.2 18.7 127.4 20.6 126.5 26C126.3 27.5 126.2 28.8 126.6 30.4C128 37.1 139.7 39 141.3 43.3C141.6 44.1 141.5 45.1 141.4 45.7C141.1 46.8 140.4 47.9 138.2 47.9C136.1 47.9 134.9 46.7 134.9 44.9V41.7H126.1V44.2C126.1 51.5 131.8 53.7 138 53.7C143.9 53.7 148.8 51.7 149.6 46.2C150 43.4 149.7 41.5 149.5 40.8C148.1 34 135.7 31.9 134.8 28.1ZM209.9 46.1L202.1 19.5H189.8V52.2H197.9L197.4 24.7L205.8 52.2H217.6V19.5H209.4L209.9 46.1ZM53.7999 19.5L47.6999 52.6H56.5999L61.1999 22L65.6999 52.6H74.5999L68.4999 19.5H53.7999ZM103.8 19.5L99.5999 45.4L95.3999 19.5H81.9999L81.2999 52.6H89.5999L89.7999 22L95.4999 52.6H103.9L109.6 22L109.8 52.6H118.1L117.4 19.5H103.8ZM180.6 19.5H172.2V44C172.2 44.4 172.2 44.9 172.1 45.3C171.9 46.1 171.2 47.7 168.9 47.7C166.6 47.7 165.9 46.1 165.7 45.3C165.6 44.9 165.6 44.5 165.6 44V19.5H157.2V43.2C157.2 43.8 157.2 45.1 157.3 45.4C157.9 51.6 162.7 53.6 168.8 53.6C174.9 53.6 179.8 51.6 180.3 45.4C180.3 45.1 180.4 43.8 180.4 43.2V19.5H180.6ZM238.1 34V38.8H241.5V43.6C241.5 44 241.5 44.5 241.4 44.9C241.3 45.8 240.4 47.3 238 47.3C235.6 47.3 234.8 45.8 234.6 44.9C234.5 44.5 234.5 44.1 234.5 43.6V28.5C234.5 28 234.5 27.4 234.6 26.9C234.8 26.1 235.5 24.5 237.9 24.5C240.4 24.5 241.1 26.2 241.2 26.9C241.3 27.4 241.3 28.2 241.3 28.2V30H249.6V28.9C249.6 28.9 249.6 27.8 249.5 26.7C248.9 20.5 243.8 18.5 237.9 18.5C232 18.5 227 20.5 226.3 26.7C226.2 27.3 226.1 28.3 226.1 28.9V42.8C226.1 43.4 226.1 43.9 226.2 45C226.7 51 232 53.2 237.8 53.2C243.7 53.2 248.9 51.1 249.4 45C249.5 43.9 249.5 43.4 249.5 42.8V34H238.1Z" fill="black"/>
</svg>
