<svg width="63" height="40" viewBox="0 0 63 40" fill="none" xmlns="http://www.w3.org/2000/svg">
<path d="M1.14481 21.5618C1.44065 20.8884 1.67286 20.2688 1.84143 19.7031C2.02181 19.1353 2.17583 18.4868 2.30348 17.7577C3.22782 18.0947 4.26936 18.3014 5.42812 18.3779C6.58687 18.4544 7.6449 18.4084 8.60222 18.2401C9.58317 18.0676 10.26 17.8633 10.6327 17.6272C11.0034 17.3792 11.1711 17.1548 11.1357 16.9539C11.009 16.233 9.84645 16.0658 7.64818 16.4523C5.23717 16.8763 3.44436 16.9357 2.26976 16.6305C1.09308 16.3135 0.406017 15.5936 0.208583 14.4708C-0.0719826 12.8753 0.383076 11.583 1.57376 10.5938C2.76444 9.60465 4.41755 8.92407 6.53309 8.55206C7.76223 8.33592 9.04898 8.27414 10.3933 8.36671C11.7474 8.44539 12.9923 8.66511 14.1279 9.02588C13.9223 9.86618 13.7292 10.881 13.5484 12.0702C13.5191 12.3191 13.4911 12.5068 13.4647 12.6333C12.7767 12.2547 11.796 12.0129 10.5226 11.9078C9.24705 11.791 8.14245 11.8146 7.20878 11.9788C6.086 12.1763 5.34312 12.3861 4.98012 12.6083C4.61504 12.8187 4.45744 13.0657 4.50732 13.3494C4.5572 13.633 4.86365 13.8167 5.42666 13.9005C5.99941 13.9704 6.79399 13.9159 7.8104 13.7372C10.316 13.2966 12.1869 13.2661 13.4234 13.6457C14.6577 14.0135 15.3788 14.7883 15.5866 15.9702C15.8776 17.6248 15.4847 18.9245 14.4081 19.8692C13.3294 20.8021 11.5668 21.4837 9.1203 21.9139C7.80843 22.1446 6.44798 22.2376 5.03896 22.193C3.62786 22.1365 2.32981 21.9261 1.14481 21.5618Z" fill="white"/>
<path d="M25.7107 18.9966C23.0042 19.4725 20.9099 19.2376 19.4277 18.292C17.9435 17.3346 17.0143 15.7922 16.6402 13.6649C16.2703 11.5612 16.6137 9.80718 17.6705 8.40294C18.7391 6.99662 20.6325 6.05446 23.3508 5.57646C26.0809 5.09638 28.1822 5.33609 29.6546 6.29558C31.1388 7.253 32.0659 8.78357 32.4359 10.8873C32.812 13.0265 32.4707 14.7923 31.4118 16.1847C30.353 17.5771 28.4526 18.5144 25.7107 18.9966ZM25.0747 15.38C26.3866 15.1494 27.2884 14.7349 27.7803 14.1367C28.27 13.5266 28.4214 12.6898 28.2343 11.6261C28.0514 10.5861 27.6258 9.86286 26.9573 9.45649C26.2888 9.05013 25.2986 8.96229 23.9867 9.19297C22.6867 9.42158 21.7918 9.8409 21.302 10.4509C20.8123 11.061 20.6589 11.886 20.8417 12.9261C21.0267 13.9779 21.4534 14.707 22.1219 15.1134C22.7904 15.5198 23.7747 15.6087 25.0747 15.38Z" fill="white"/>
<path d="M38.6951 12.8388C42.1183 12.2124 44.9444 11.6545 47.1733 11.1651C47.1257 11.7949 47.133 12.3906 47.1952 12.9523C47.2574 13.5141 47.3581 14.1908 47.4974 14.9827L34.9991 17.1805C34.6905 14.871 34.3606 12.7176 34.0094 10.7203C33.6581 8.7229 33.2337 6.58612 32.7359 4.30993L37.0616 3.54928L38.6951 12.8388Z" fill="white"/>
<path d="M52.2765 0.672759C54.4984 0.282046 56.3013 0.245254 57.6851 0.562382C59.0669 0.867692 60.096 1.45432 60.7726 2.32227C61.4589 3.17632 61.9236 4.29473 62.1667 5.67752C62.3974 6.98939 62.3036 8.18776 61.8851 9.27262C61.4667 10.3575 60.7143 11.2757 59.6281 12.0271C58.5397 12.7668 57.1328 13.2883 55.4073 13.5918C54.3554 13.7767 53.2858 13.9648 52.1985 14.156C51.1112 14.3472 50.011 14.5346 48.898 14.7181C48.5831 12.3732 48.249 10.1962 47.8957 8.18702C47.5382 6.15421 47.1179 4.04107 46.6347 1.8476C48.0204 1.4821 49.901 1.09049 52.2765 0.672759ZM55.2833 9.97662C56.3824 9.78334 57.0684 9.38857 57.3413 8.7923C57.6141 8.19604 57.6685 7.43107 57.5043 6.49739C57.3463 5.59917 57.0235 4.90661 56.5358 4.41972C56.0599 3.93075 55.2902 3.77978 54.2265 3.96683C53.0801 4.16842 52.2295 4.35455 51.6746 4.52522L52.7127 10.4286L55.2833 9.97662Z" fill="white"/>
<path d="M12.4504 39.6045C9.74396 40.0804 7.64964 39.8456 6.16747 38.9C4.68323 37.9426 3.75407 36.4002 3.37998 34.2728C3.01005 32.1691 3.35347 30.4151 4.41024 29.0109C5.47883 27.6046 7.37227 26.6624 10.0906 26.1844C12.8207 25.7043 14.9219 25.944 16.3944 26.9035C17.8786 27.8609 18.8057 29.3915 19.1756 31.4952C19.5518 33.6344 19.2104 35.4002 18.1516 36.7926C17.0928 38.185 15.1924 39.1223 12.4504 39.6045ZM11.8145 35.988C13.1264 35.7573 14.0282 35.3428 14.52 34.7446C15.0098 34.1346 15.1611 33.2977 14.9741 32.234C14.7912 31.194 14.3655 30.4708 13.697 30.0644C13.0286 29.6581 12.0384 29.5702 10.7265 29.8009C9.42646 30.0295 8.53156 30.4488 8.04181 31.0589C7.55206 31.6689 7.39863 32.4939 7.58152 33.534C7.76648 34.5859 8.1932 35.315 8.86168 35.7213C9.53016 36.1277 10.5144 36.2166 11.8145 35.988Z" fill="white"/>
<path d="M29.9676 23.0546L34.3641 22.2815L35.6048 29.3373C35.8867 31.0788 35.5424 32.6197 34.5718 33.96C33.6131 35.2983 31.7569 36.2095 29.0031 36.6938C26.2139 37.1842 24.2106 36.9821 22.9933 36.0874C21.7739 35.1809 21.0211 33.8451 20.7351 32.08L19.4726 24.9001L23.8691 24.127L25.0818 31.0232C25.1732 31.5432 25.2835 31.9625 25.4126 32.2809C25.5514 32.5855 25.8526 32.8432 26.3162 33.0541C26.7915 33.2629 27.496 33.2853 28.4297 33.1211C29.4461 32.9424 30.1657 32.6696 30.5886 32.3028C31.0094 31.9242 31.23 31.5504 31.2504 31.1813C31.2826 30.8101 31.2498 30.3468 31.1522 29.7913L29.9676 23.0546Z" fill="white"/>
<path d="M51.6671 23.0951C49.8011 23.3623 47.9926 23.6438 46.2413 23.9396L47.8686 33.1936L43.4366 33.9729L41.8093 24.7189C40.0504 25.0404 38.2602 25.3918 36.4387 25.773L35.7841 22.0501L51.0124 19.3723L51.6671 23.0951Z" fill="white"/>
</svg>
