<svg width="85" height="35" viewBox="0 0 256 83" fill="none" xmlns="http://www.w3.org/2000/svg">
<path d="M132.397 26.4287C132.251 37.9442 142.66 44.3707 150.501 48.1912C158.557 52.1117 161.263 54.6255 161.232 58.1308C161.17 63.4965 154.805 65.8642 148.848 65.9564C138.455 66.1179 132.412 63.1506 127.608 60.9059L123.864 78.4251C128.684 80.6467 137.609 82.5839 146.864 82.6685C168.589 82.6685 182.802 71.9448 182.879 55.3173C182.964 34.2159 153.691 33.0474 153.891 23.6152C153.96 20.7555 156.689 17.7037 162.669 16.9273C165.629 16.5353 173.8 16.2355 183.064 20.5019L186.7 3.55153C181.718 1.73734 175.315 3.05176e-05 167.343 3.05176e-05C146.895 3.05176e-05 132.512 10.8698 132.397 26.4287ZM221.638 1.4606C217.671 1.4606 214.328 3.77446 212.836 7.32596L181.803 81.4231H203.512L207.832 69.4849H234.36L236.867 81.4231H256L239.303 1.4606H221.638ZM224.675 23.0617L230.94 53.088H213.782L224.675 23.0617ZM106.076 1.4606L88.9643 81.4231H109.651L126.755 1.4606H106.076ZM75.4732 1.4606L53.9413 55.8862L45.2316 9.60906C44.2092 4.44325 40.1734 1.4606 35.6918 1.4606H0.491982L0 3.78214C7.22599 5.35034 15.436 7.87944 20.4096 10.5853C23.4537 12.2381 24.3224 13.6833 25.3217 17.6115L41.8185 81.4231H63.681L97.1973 1.4606H75.4732Z" fill="black"/>
</svg>
