<svg width="85" height="35" viewBox="0 0 198 198" fill="none" xmlns="http://www.w3.org/2000/svg">
<path d="M198 0H0V198H198V0Z" fill="white"/>
<path d="M198 99H0V198H198V99Z" fill="black"/>
<path d="M78.28 27.6799L59.64 72.1399H47.48L38.31 36.6599C37.75 34.4799 37.27 33.6799 35.58 32.7499C32.81 31.2499 28.25 29.8399 24.23 28.9699L24.5 27.6799H44.07C46.56 27.6799 48.81 29.3399 49.38 32.2099L54.22 57.9399L66.19 27.6799H78.28V27.6799ZM125.91 57.6299C125.96 45.8999 109.69 45.2499 109.8 39.9999C109.84 38.4099 111.35 36.7099 114.68 36.2799C116.33 36.0699 120.87 35.8999 126.02 38.2699L128.04 28.8399C125.27 27.8399 121.71 26.8799 117.28 26.8799C105.91 26.8799 97.91 32.9199 97.85 41.5799C97.78 47.9799 103.56 51.5499 107.92 53.6799C112.41 55.8599 113.91 57.2599 113.89 59.1999C113.86 62.1799 110.31 63.4999 107.01 63.5499C101.22 63.6399 97.87 61.9899 95.2 60.7399L93.11 70.4899C95.8 71.7199 100.76 72.7899 105.9 72.8499C117.97 72.8399 125.88 66.8699 125.91 57.6299ZM155.94 72.1399H166.58L157.29 27.6799H147.48C145.27 27.6799 143.41 28.9599 142.58 30.9399L125.32 72.1399H137.4L139.8 65.4999H154.56L155.94 72.1399ZM143.1 56.3899L149.16 39.6899L152.64 56.3899H143.1ZM94.71 27.6799L85.2 72.1399H73.7L83.21 27.6799H94.71Z" fill="black"/>
<path d="M46.1302 153.83C47.4302 154.6 49.4602 155.26 51.5602 155.26C54.1602 155.26 55.6202 154.03 55.6202 152.2C55.6202 150.5 54.4902 149.5 51.6602 148.47C47.9302 147.17 45.5602 145.17 45.5602 141.97C45.5602 138.27 48.6202 135.51 53.5202 135.51C55.9502 135.51 57.7202 136.04 58.8802 136.61L57.9102 139.94C57.0802 139.51 55.5102 138.87 53.4102 138.87C50.8102 138.87 49.7102 140.24 49.7102 141.57C49.7102 143.3 51.0102 144.1 54.0102 145.23C57.9102 146.73 59.7702 148.69 59.7702 151.89C59.7702 155.52 57.0402 158.62 51.2802 158.62C48.8802 158.62 46.4202 157.95 45.1802 157.22L46.1302 153.83Z" fill="white"/>
<path d="M75.7104 148.33H67.2504V154.93H76.7104V158.29H63.1504V135.84H76.2104V139.2H67.2504V145H75.7104V148.33V148.33Z" fill="white"/>
<path d="M96.06 157.63C95.09 158.1 92.96 158.63 90.23 158.63C83.1 158.63 78.77 154.17 78.77 147.34C78.77 139.95 83.93 135.51 90.79 135.51C93.49 135.51 95.39 136.04 96.22 136.48L95.35 139.74C94.28 139.27 92.79 138.87 90.95 138.87C86.39 138.87 83.09 141.74 83.09 147.13C83.09 152.06 85.95 155.19 90.92 155.19C92.55 155.19 94.28 154.86 95.38 154.39L96.06 157.63Z" fill="white"/>
<path d="M103.3 135.84V148.93C103.3 153.33 105.13 155.36 107.9 155.36C110.86 155.36 112.63 153.33 112.63 148.93V135.84H116.73V148.66C116.73 155.59 113.17 158.65 107.77 158.65C102.57 158.65 99.21 155.75 99.21 148.69V135.83H103.3V135.84Z" fill="white"/>
<path d="M121.09 136.18C122.65 135.88 124.92 135.68 127.29 135.68C130.52 135.68 132.69 136.21 134.22 137.48C135.45 138.51 136.15 140.08 136.15 142.01C136.15 144.91 134.19 146.87 132.05 147.61V147.71C133.68 148.31 134.65 149.88 135.18 152.04C135.91 154.84 136.51 157.44 136.95 158.3H132.75C132.42 157.63 131.85 155.8 131.25 153C130.58 150.07 129.55 149.14 127.22 149.07H125.15V158.3H121.09V136.18V136.18ZM125.15 146.07H127.58C130.35 146.07 132.04 144.6 132.04 142.37C132.04 139.94 130.34 138.77 127.68 138.77C126.38 138.77 125.55 138.87 125.15 138.97V146.07V146.07Z" fill="white"/>
<path d="M152.27 148.33H143.81V154.93H153.27V158.29H139.71V135.84H152.77V139.2H143.81V145H152.27V148.33Z" fill="white"/>
</svg>
